<svg width="117" height="126" fill="none" xmlns="http://www.w3.org/2000/svg"><g clip-path="url(#a)"><g filter="url(#b)"><circle cx="59.5" cy="10.5" r="2.5" fill="#FF875B"/></g><g filter="url(#c)"><circle cx="10.5" cy="72.5" r="2.5" fill="#FF875B"/></g><g filter="url(#d)"><circle cx="86.5" cy="114.5" r="2.5" fill="#60BEFF"/></g><g filter="url(#e)"><circle cx="29.875" cy="111.365" r="3" fill="#ACD96A"/></g><g filter="url(#f)"><circle cx="102.5" cy="17.5" r="2.5" fill="#60FCE3"/></g><g clip-path="url(#g)"><path d="m12.703 85.085-.64.64a1.822 1.822 0 0 0 0 2.635l5.141 5.196c.128.128.256.238.421.31v-6.311l-4.922-2.47Z" fill="#3D89F5"/><path d="m24.303 85.085.64.64a1.84 1.84 0 0 1 .056 2.58l-.055.054-5.16 5.178a1.399 1.399 0 0 1-.42.311v-6.293l4.94-2.47Z" fill="#1656B9"/><path d="m23.059 83.767-3.22-3.22c-.714-.714-1.866-.732-2.58-.037-.018.018-.037.018-.037.037l-3.238 3.22 4.52 2.25 4.555-2.25Z" fill="#85B5F8"/></g><g filter="url(#h)"><circle cx="106.5" cy="83.5" r="2.5" fill="#AFB0F6"/></g><path d="m16.25 50.7 11-3.575v24.75c-7.857-3.3-11-9.625-11-13.2V50.7Z" fill="#0500FF"/><path d="m38.25 50.7-11-3.575v24.75c7.858-3.3 11-9.625 11-13.2V50.7Z" fill="url(#i)"/><path d="m38.25 50.7-11-3.575v24.75c7.858-3.3 11-9.625 11-13.2V50.7Z" fill="url(#j)"/><g clip-path="url(#k)" fill-rule="evenodd" clip-rule="evenodd"><path d="M58.128 74.521c-8.57-2.137-13.787-10.819-11.649-19.39 2.137-8.572 10.82-13.79 19.39-11.652 8.572 2.137 13.79 10.82 11.652 19.391-2.138 8.572-10.82 13.788-19.393 11.651Z" fill="#F7931A"/><path d="M66.272 56.937c-.51 2.029-3.658.998-4.68.745l.901-3.586c1.021.253 4.31.725 3.779 2.84Zm-.559 5.786c-.56 2.23-4.341 1.025-5.568.722l.993-3.953c1.226.303 5.16.905 4.575 3.231Zm4.133-5.754c.328-2.178-1.343-3.35-3.627-4.13l.741-2.95-1.808-.449-.722 2.873a74.062 74.062 0 0 0-1.45-.338l.726-2.892-1.807-.448-.742 2.95a61.19 61.19 0 0 1-1.155-.27l.002-.008-2.494-.619-.482 1.918s1.342.306 1.314.325c.733.181.934.678.843 1.044l-2.03 8.083c-.09.22-.317.553-.83.427.019.026-1.315-.326-1.315-.326l-.897 2.055 2.354.583c.437.109.867.222 1.29.33l-.749 2.985 1.807.447.741-2.952c.494.133.973.255 1.442.371l-.738 2.939 1.809.448.748-2.979c3.085.58 5.405.346 6.38-2.424.788-2.23-.038-3.517-1.661-4.356 1.182-.27 2.073-1.043 2.31-2.637Z" fill="#fff"/></g><path d="M88.906 64.238a.729.729 0 0 1 .52-.22h17.955c.328 0 .492.405.26.642l-3.547 3.62a.726.726 0 0 1-.52.22H85.619c-.328 0-.492-.404-.26-.641l3.547-3.621Z" fill="url(#l)"/><path d="M88.906 50.72a.749.749 0 0 1 .52-.22h17.955c.328 0 .492.404.26.641l-3.547 3.62a.726.726 0 0 1-.52.22H85.619c-.328 0-.492-.404-.26-.64l3.547-3.622Z" fill="url(#m)"/><path d="M104.094 57.435a.726.726 0 0 0-.52-.22H85.619c-.328 0-.492.405-.26.642l3.547 3.62c.135.14.322.22.52.22h17.955c.328 0 .492-.404.26-.64l-3.547-3.622Z" fill="url(#n)"/><g clip-path="url(#o)"><path d="M45.5 102c7.456 0 13.5-6.044 13.5-13.5S52.956 75 45.5 75 32 81.044 32 88.5 38.044 102 45.5 102Z" fill="#FF875B"/><path d="M47.81 79.5h-4.636a.282.282 0 0 0-.28.288c-.092 4.488-2.369 8.754-6.28 11.774a.314.314 0 0 0-.066.408l2.713 3.866c.093.13.27.158.4.065 2.453-1.877 4.423-4.135 5.836-6.644 1.421 2.509 3.391 4.767 5.835 6.644.13.093.307.065.4-.065l2.713-3.866a.296.296 0 0 0-.065-.408c-3.921-3.02-6.189-7.276-6.281-11.774-.01-.158-.14-.288-.288-.288Z" fill="#fff"/></g><g clip-path="url(#p)"><path fill-rule="evenodd" clip-rule="evenodd" d="M93 88.435c0 7.185-5.838 13-13.024 13-6.83 0-12.409-5.248-12.976-11.913h17.207v-2.175H67c.567-6.665 6.145-11.912 12.976-11.912 7.21 0 13.024 5.814 13.024 13Z" fill="#0052FF"/></g><g clip-path="url(#q)"><path d="M77 42c7.18 0 13-5.82 13-13s-5.82-13-13-13-13 5.82-13 13 5.82 13 13 13Z" fill="#5741D9"/><path d="M68.434 31.207c0-.32.007-.639-.001-.958-.015-.618.03-1.23.136-1.842.181-1.02.51-1.984 1.046-2.875.9-1.497 2.17-2.595 3.77-3.334a8.103 8.103 0 0 1 2.232-.675 7.81 7.81 0 0 1 1.223-.106c1.751.013 3.383.436 4.854 1.381 1.443.928 2.526 2.155 3.177 3.73.306.74.494 1.514.593 2.307.11.873.115 1.752.099 2.631-.01.474-.008.95-.015 1.424a2.456 2.456 0 0 1-.067.615c-.218.784-1.136 1.144-1.808.708-.302-.194-.45-.478-.504-.817a4.199 4.199 0 0 1-.056-.69V29.84c0-.374-.12-.706-.38-.982-.458-.48-1.159-.498-1.67-.055-.289.25-.42.568-.447.933a5.024 5.024 0 0 0-.015.411c-.001 1.053.002 2.104-.006 3.158-.005.597-.47 1.052-1.09 1.094a1.15 1.15 0 0 1-1.223-.936 2.805 2.805 0 0 1-.037-.482v-3.176a1.3 1.3 0 0 0-.38-.934c-.512-.528-1.284-.51-1.782.031-.244.265-.35.573-.35.926 0 1.045-.002 2.094 0 3.139 0 .27-.035.534-.147.783a1.13 1.13 0 0 1-1.093.666c-.457-.015-.843-.296-1.018-.744a1.511 1.511 0 0 1-.099-.554c.002-1.012.002-2.026-.002-3.04 0-.223-.009-.45-.078-.667-.157-.499-.496-.816-1.02-.9-.533-.086-.929.16-1.225.58-.142.201-.189.428-.189.667 0 .962.003 1.922.003 2.883 0 .283.005.566-.06.846-.108.463-.563.968-1.252.92-.473-.035-.928-.419-1.06-.91a2.062 2.062 0 0 1-.061-.532c.005-.59.005-1.174.002-1.758 0 0 .003 0 0 0Z" fill="#fff"/></g><g clip-path="url(#r)"><path d="M45 42c7.18 0 13-5.82 13-13s-5.82-13-13-13-13 5.82-13 13 5.82 13 13 13Z" fill="#627EEA"/><path d="M44.998 18.166v8.01l6.606 3.025-6.606-11.035Z" fill="#fff" fill-opacity=".602"/><path d="m44.998 18.166-6.606 11.035 6.606-3.025v-8.01Z" fill="#fff"/><path d="M44.998 34.391v5.442l6.61-9.372-6.61 3.93Z" fill="#fff" fill-opacity=".602"/><path d="M44.998 39.833V34.39l-6.606-3.929 6.606 9.372Z" fill="#fff"/><path d="m44.998 33.132 6.606-3.931-6.606-3.023v6.954Z" fill="#fff" fill-opacity=".2"/><path d="m38.392 29.2 6.606 3.932v-6.954L38.392 29.2Z" fill="#fff" fill-opacity=".602"/></g><path fill-rule="evenodd" clip-rule="evenodd" d="M97.62 38.785c.487.52 3.161 3.016 7.36.12 3.034-2.388 2.958-7.562 2.667-9.126-.101.228-3.628 8.024-10.027 9.006Zm10.027-9.007c-.038-.015-3.942-.553-7.804 1.958-2.397 1.559-2.714 3.84-2.604 5.361 5.612-.633 10.282-7.14 10.408-7.319Z" fill="#97C554"/><g filter="url(#s)"><circle cx="17.625" cy="37.492" r="2.5" fill="#F8BF1A"/></g><path d="M50 120.998c0 2.619 1.392 3.222 2.84 3.222 3.062 0 5.365-2.695 6.738-4.824-.168.471-.26.942-.26 1.395 0 1.243.705 2.129 2.097 2.129 1.912 0 3.954-1.696 5.012-3.524a2.727 2.727 0 0 0-.111.734c0 .868.482 1.414 1.466 1.414 3.1 0 6.218-5.559 6.218-10.421 0-3.788-1.894-7.123-6.646-7.123C59.003 104 50 114.327 50 120.998Zm14.478-10.29c0-.942.52-1.601 1.28-1.601.743 0 1.263.659 1.263 1.601 0 .943-.52 1.621-1.262 1.621-.762 0-1.28-.678-1.28-1.621h-.001Zm3.972 0c0-.942.52-1.601 1.28-1.601.743 0 1.263.659 1.263 1.601 0 .943-.52 1.621-1.262 1.621-.762 0-1.28-.678-1.28-1.621Z" fill="#AB9FF2"/></g><defs><clipPath id="a"><path fill="#fff" d="M0 0h117v126H0z"/></clipPath><clipPath id="g"><path fill="#fff" transform="translate(11.5 80)" d="M0 0h14v14H0z"/></clipPath><clipPath id="k"><path fill="#fff" transform="translate(46 43)" d="M0 0h32v32H0z"/></clipPath><clipPath id="o"><path fill="#fff" transform="translate(32 75)" d="M0 0h27v27H0z"/></clipPath><clipPath id="p"><path fill="#fff" transform="translate(67 75.435)" d="M0 0h26v26H0z"/></clipPath><clipPath id="q"><path fill="#fff" transform="translate(64 16)" d="M0 0h26v26H0z"/></clipPath><clipPath id="r"><path fill="#fff" transform="translate(32 16)" d="M0 0h26v26H0z"/></clipPath><filter id="b" x="49" y="0" width="21" height="21" filterUnits="userSpaceOnUse" color-interpolation-filters="sRGB"><feFlood flood-opacity="0" result="BackgroundImageFix"/><feColorMatrix in="SourceAlpha" values="0 0 0 0 0 0 0 0 0 0 0 0 0 0 0 0 0 0 127 0" result="hardAlpha"/><feOffset/><feGaussianBlur stdDeviation="4"/><feComposite in2="hardAlpha" operator="out"/><feColorMatrix values="0 0 0 0 1 0 0 0 0 0.529412 0 0 0 0 0.356863 0 0 0 0.8 0"/><feBlend in2="BackgroundImageFix" result="effect1_dropShadow_2057_63852"/><feBlend in="SourceGraphic" in2="effect1_dropShadow_2057_63852" result="shape"/></filter><filter id="c" x="0" y="62" width="21" height="21" filterUnits="userSpaceOnUse" color-interpolation-filters="sRGB"><feFlood flood-opacity="0" result="BackgroundImageFix"/><feColorMatrix in="SourceAlpha" values="0 0 0 0 0 0 0 0 0 0 0 0 0 0 0 0 0 0 127 0" result="hardAlpha"/><feOffset/><feGaussianBlur stdDeviation="4"/><feComposite in2="hardAlpha" operator="out"/><feColorMatrix values="0 0 0 0 1 0 0 0 0 0.529412 0 0 0 0 0.356863 0 0 0 0.8 0"/><feBlend in2="BackgroundImageFix" result="effect1_dropShadow_2057_63852"/><feBlend in="SourceGraphic" in2="effect1_dropShadow_2057_63852" result="shape"/></filter><filter id="d" x="76" y="104" width="21" height="21" filterUnits="userSpaceOnUse" color-interpolation-filters="sRGB"><feFlood flood-opacity="0" result="BackgroundImageFix"/><feColorMatrix in="SourceAlpha" values="0 0 0 0 0 0 0 0 0 0 0 0 0 0 0 0 0 0 127 0" result="hardAlpha"/><feOffset/><feGaussianBlur stdDeviation="4"/><feComposite in2="hardAlpha" operator="out"/><feColorMatrix values="0 0 0 0 0.376471 0 0 0 0 0.745098 0 0 0 0 1 0 0 0 0.8 0"/><feBlend in2="BackgroundImageFix" result="effect1_dropShadow_2057_63852"/><feBlend in="SourceGraphic" in2="effect1_dropShadow_2057_63852" result="shape"/></filter><filter id="e" x="18.875" y="100.365" width="22" height="22" filterUnits="userSpaceOnUse" color-interpolation-filters="sRGB"><feFlood flood-opacity="0" result="BackgroundImageFix"/><feColorMatrix in="SourceAlpha" values="0 0 0 0 0 0 0 0 0 0 0 0 0 0 0 0 0 0 127 0" result="hardAlpha"/><feOffset/><feGaussianBlur stdDeviation="4"/><feComposite in2="hardAlpha" operator="out"/><feColorMatrix values="0 0 0 0 0.67451 0 0 0 0 0.85098 0 0 0 0 0.415686 0 0 0 0.8 0"/><feBlend in2="BackgroundImageFix" result="effect1_dropShadow_2057_63852"/><feBlend in="SourceGraphic" in2="effect1_dropShadow_2057_63852" result="shape"/></filter><filter id="f" x="92" y="7" width="21" height="21" filterUnits="userSpaceOnUse" color-interpolation-filters="sRGB"><feFlood flood-opacity="0" result="BackgroundImageFix"/><feColorMatrix in="SourceAlpha" values="0 0 0 0 0 0 0 0 0 0 0 0 0 0 0 0 0 0 127 0" result="hardAlpha"/><feOffset/><feGaussianBlur stdDeviation="4"/><feComposite in2="hardAlpha" operator="out"/><feColorMatrix values="0 0 0 0 0.376471 0 0 0 0 0.988235 0 0 0 0 0.890196 0 0 0 0.8 0"/><feBlend in2="BackgroundImageFix" result="effect1_dropShadow_2057_63852"/><feBlend in="SourceGraphic" in2="effect1_dropShadow_2057_63852" result="shape"/></filter><filter id="h" x="96" y="73" width="21" height="21" filterUnits="userSpaceOnUse" color-interpolation-filters="sRGB"><feFlood flood-opacity="0" result="BackgroundImageFix"/><feColorMatrix in="SourceAlpha" values="0 0 0 0 0 0 0 0 0 0 0 0 0 0 0 0 0 0 127 0" result="hardAlpha"/><feOffset/><feGaussianBlur stdDeviation="4"/><feComposite in2="hardAlpha" operator="out"/><feColorMatrix values="0 0 0 0 0.686275 0 0 0 0 0.690196 0 0 0 0 0.964706 0 0 0 0.8 0"/><feBlend in2="BackgroundImageFix" result="effect1_dropShadow_2057_63852"/><feBlend in="SourceGraphic" in2="effect1_dropShadow_2057_63852" result="shape"/></filter><filter id="s" x="7.125" y="26.992" width="21" height="21" filterUnits="userSpaceOnUse" color-interpolation-filters="sRGB"><feFlood flood-opacity="0" result="BackgroundImageFix"/><feColorMatrix in="SourceAlpha" values="0 0 0 0 0 0 0 0 0 0 0 0 0 0 0 0 0 0 127 0" result="hardAlpha"/><feOffset/><feGaussianBlur stdDeviation="4"/><feComposite in2="hardAlpha" operator="out"/><feColorMatrix values="0 0 0 0 0.972549 0 0 0 0 0.74902 0 0 0 0 0.101961 0 0 0 0.8 0"/><feBlend in2="BackgroundImageFix" result="effect1_dropShadow_2057_63852"/><feBlend in="SourceGraphic" in2="effect1_dropShadow_2057_63852" result="shape"/></filter><linearGradient id="i" x1="26.786" y1="74.986" x2="35.79" y2="42.42" gradientUnits="userSpaceOnUse"><stop offset=".26" stop-color="#48FF91"/><stop offset=".66" stop-color="#0094FF"/><stop offset=".8" stop-color="#0038FF"/><stop offset=".89" stop-color="#0500FF"/></linearGradient><linearGradient id="j" x1="35.123" y1="45.695" x2="26.814" y2="71.84" gradientUnits="userSpaceOnUse"><stop offset=".02" stop-color="#00F"/><stop offset=".08" stop-color="#0094FF"/><stop offset=".16" stop-color="#48FF91"/><stop offset=".42" stop-color="#0094FF"/><stop offset=".68" stop-color="#0038FF"/><stop offset=".9" stop-color="#0500FF"/></linearGradient><linearGradient id="l" x1="105.666" y1="48.337" x2="92.832" y2="72.417" gradientUnits="userSpaceOnUse"><stop stop-color="#00FFA3"/><stop offset="1" stop-color="#DC1FFF"/></linearGradient><linearGradient id="m" x1="100.232" y1="45.441" x2="87.399" y2="69.522" gradientUnits="userSpaceOnUse"><stop stop-color="#00FFA3"/><stop offset="1" stop-color="#DC1FFF"/></linearGradient><linearGradient id="n" x1="102.932" y1="46.88" x2="90.098" y2="70.96" gradientUnits="userSpaceOnUse"><stop stop-color="#00FFA3"/><stop offset="1" stop-color="#DC1FFF"/></linearGradient></defs></svg>