<?xml version="1.0" encoding="utf-8"?>
<!-- Generator: Adobe Illustrator 27.0.0, SVG Export Plug-In . SVG Version: 6.00 Build 0)  -->
<svg version="1.1" id="Layer_1" xmlns="http://www.w3.org/2000/svg" xmlns:xlink="http://www.w3.org/1999/xlink" x="0px" y="0px"
	 viewBox="0 0 664 380" style="enable-background:new 0 0 664 380;" xml:space="preserve">
<style type="text/css">
	.st0{fill:#E2761B;stroke:#E2761B;stroke-width:0.5556;stroke-linecap:round;stroke-linejoin:round;}
	.st1{fill:#E4761B;stroke:#E4761B;stroke-width:0.5556;stroke-linecap:round;stroke-linejoin:round;}
	.st2{fill:#D7C1B3;stroke:#D7C1B3;stroke-width:0.5556;stroke-linecap:round;stroke-linejoin:round;}
	.st3{fill:#233447;stroke:#233447;stroke-width:0.5556;stroke-linecap:round;stroke-linejoin:round;}
	.st4{fill:#CD6116;stroke:#CD6116;stroke-width:0.5556;stroke-linecap:round;stroke-linejoin:round;}
	.st5{fill:#E4751F;stroke:#E4751F;stroke-width:0.5556;stroke-linecap:round;stroke-linejoin:round;}
	.st6{fill:#F6851B;stroke:#F6851B;stroke-width:0.5556;stroke-linecap:round;stroke-linejoin:round;}
	.st7{fill:#C0AD9E;stroke:#C0AD9E;stroke-width:0.5556;stroke-linecap:round;stroke-linejoin:round;}
	.st8{fill:#161616;stroke:#161616;stroke-width:0.5556;stroke-linecap:round;stroke-linejoin:round;}
	.st9{fill:#763D16;stroke:#763D16;stroke-width:0.5556;stroke-linecap:round;stroke-linejoin:round;}
	.st10{fill-rule:evenodd;clip-rule:evenodd;fill:#F0B90F;}
	.st11{fill-rule:evenodd;clip-rule:evenodd;fill:#FF007A;}
	.st12{fill:none;stroke:#FFFFFF;}
	.st13{fill-rule:evenodd;clip-rule:evenodd;fill:#FFFFFF;}
	.st14{fill:none;stroke:#262626;stroke-width:12;stroke-linecap:round;}
	.st15{fill-rule:evenodd;clip-rule:evenodd;fill:#FFB347;}
	.st16{fill-rule:evenodd;clip-rule:evenodd;fill:#FF9332;}
	.st17{fill-rule:evenodd;clip-rule:evenodd;fill:#EA5237;}
	.st18{fill-rule:evenodd;clip-rule:evenodd;fill:#F2BA2F;}
	.st19{fill:#0052FF;}
	.st20{fill-rule:evenodd;clip-rule:evenodd;fill:#3D81DB;}
	.st21{fill:#FFFFFF;}
	.st22{fill:#94A6C3;}
	.st23{fill:#0A192B;}
	.st24{fill:#FFD923;}
	.st25{fill:#D82122;}
	.st26{fill:none;stroke:#666666;stroke-width:2;stroke-linecap:round;stroke-dasharray:0,16;}
</style>
<path class="st0" d="M657.6,5.6l-13.5,10.3l2.5-6.1L657.6,5.6z"/>
<path class="st1" d="M626.4,5.6L639.8,16l-2.4-6.2L626.4,5.6z"/>
<path class="st1" d="M652.7,29.4l-3.6,5.7l7.7,2.1l2.2-7.7L652.7,29.4z"/>
<path class="st1" d="M625,29.5l2.2,7.7l7.7-2.1l-3.6-5.7L625,29.5z"/>
<path class="st1" d="M634.5,19.9l-2.2,3.3l7.6,0.3l-0.2-8.4L634.5,19.9z"/>
<path class="st1" d="M649.5,19.9l-5.3-4.9l-0.1,8.5l7.6-0.3L649.5,19.9z"/>
<path class="st1" d="M634.9,35.1l4.6-2.3l-4-3.2L634.9,35.1z"/>
<path class="st1" d="M644.5,32.8l4.6,2.3l-0.6-5.5L644.5,32.8z"/>
<path class="st2" d="M649.1,35.1l-4.6-2.3l0.4,3.1v1.3L649.1,35.1z"/>
<path class="st2" d="M634.9,35.1l4.3,2.1l-0.1-1.3l0.4-3.1L634.9,35.1z"/>
<path class="st3" d="M639.3,27.6l-3.8-1.2l2.7-1.3L639.3,27.6z"/>
<path class="st3" d="M644.8,27.6l1.2-2.5l2.7,1.3L644.8,27.6z"/>
<path class="st4" d="M634.9,35.1l0.7-5.7l-4.3,0.2L634.9,35.1z"/>
<path class="st4" d="M648.5,29.4l0.6,5.7l3.6-5.5L648.5,29.4z"/>
<path class="st4" d="M651.7,23.2l-7.6,0.4l0.7,4l1.1-2.4l2.7,1.2L651.7,23.2z"/>
<path class="st4" d="M635.4,26.4l2.7-1.2l1.2,2.4l0.7-4l-7.6-0.4L635.4,26.4z"/>
<path class="st5" d="M632.4,23.2l3.2,6.4l-0.1-3.2L632.4,23.2z"/>
<path class="st5" d="M648.7,26.4l-0.1,3.2l3.2-6.4L648.7,26.4z"/>
<path class="st5" d="M640,23.6l-0.7,4l0.9,4.7l0.2-6.2L640,23.6z"/>
<path class="st5" d="M644.2,23.6l-0.4,2.5l0.2,6.2l0.9-4.7L644.2,23.6z"/>
<path class="st6" d="M644.8,27.6l-0.9,4.7l0.7,0.5l3.9-3.2l0.2-3.2L644.8,27.6z"/>
<path class="st6" d="M635.5,26.4l0.1,3.2l3.9,3.2l0.7-0.5l-0.9-4.7L635.5,26.4z"/>
<path class="st7" d="M644.9,37.1v-1.2l-0.3-0.4h-5.1l-0.3,0.4v1.2l-4.2-2l1.4,1.2l3.1,2.2h5.2l3-2.2l1.5-1.2L644.9,37.1z"/>
<path class="st8" d="M644.6,32.8l-0.7-0.5h-3.7l-0.7,0.5l-0.3,3.1l0.3-0.4h5.1l0.3,0.4L644.6,32.8z"/>
<path class="st9" d="M658.2,16.5l1.1-5.7l-1.7-5.2l-13,9.9l5,4.4l7.1,2.1l1.5-1.9l-0.6-0.5l1-1l-0.8-0.7l1.1-0.8L658.2,16.5z"/>
<path class="st9" d="M624.8,10.8l1.2,5.7l-0.8,0.6l1.1,0.8l-0.8,0.7l1.1,1l-0.7,0.5l1.5,1.9l7.1-2.1l5-4.4l-13-9.9L624.8,10.8z"/>
<path class="st6" d="M656.7,22l-7.1-2.1l2.1,3.3l-3.2,6.4l4.3-0.1h6.3L656.7,22z"/>
<path class="st6" d="M634.5,19.9l-7.1,2.1l-2.3,7.5h6.3l4.2,0.1l-3.2-6.4L634.5,19.9z"/>
<path class="st6" d="M644.1,23.5l0.5-8l2-5.7h-9.1l2,5.7l0.5,8l0.2,2.6v6.2h3.7l0.1-6.2L644.1,23.5z"/>
<path class="st10" d="M623.2,145.1l11.8,6.8v-5l-7.5-4.3V134l-4.3-2.6V145.1z"/>
<path class="st10" d="M657,134v8.6l-7.5,4.3v5l11.8-6.8v-13.7L657,134z"/>
<path class="st10" d="M623.2,123.1v5l4.3,2.5v-5l4.4-2.5l-4.3-2.5L623.2,123.1z"/>
<path class="st10" d="M642.3,151.1l-4.4-2.5v5l4.4,2.5l4.3-2.5v-5L642.3,151.1z"/>
<path class="st10" d="M652.6,123.1l4.4,2.5v5l4.3-2.5v-5l-4.4-2.5L652.6,123.1z"/>
<path class="st10" d="M642.3,112.1l-11.9,6.8l4.4,2.5l7.5-4.3l7.4,4.3l4.4-2.5L642.3,112.1z"/>
<path class="st10" d="M654.1,132.3v-5l-4.4-2.5l-2.1,1.2l-5.3,3.1l-5.8-3.3l-1.7-1l-4.4,2.5v5l2.7,1.5l4.8,2.8v8.6l4.4,2.6l4.3-2.6
	v-8.6l4.4-2.5L654.1,132.3z"/>
<path class="st10" d="M637.7,123.1l0.2,0.2l4.4,2.5l3.8-2.3l0.8-0.4h-0.1l-4.5-2.7L637.7,123.1z"/>
<path class="st10" d="M630.4,135.6v5.3l4.6,2.7v-5.3l-3.3-2L630.4,135.6z"/>
<path class="st10" d="M649.5,143.6l4.6-2.7v-5.3l-1.7,1l-2.9,1.7V143.6z"/>
<path class="st11" d="M634.9,235.6c-1.6-2.3-6.1-8.5-10.2-13.7c-0.4-0.5-0.8-1-0.7-1c0.1,0,13.9,15.6,14.9,16.7l0.3,0.3l0,0.5
	c0,0.7-0.2,1.1-0.7,1.6c-0.6,0.5-1.3,0.8-2.3,1c-0.7,0.1-0.9,0.2-1.2,0.5c-0.3,0.3-0.4,0.6-0.4,1.6c-0.1,1.4-0.3,2-0.9,3.4
	c-0.6,1.4-0.8,1.9-0.7,2.6c0.2,0.9,0.6,1.6,1.8,2.4c0.9,0.6,1.3,1,1.5,1.5c0.2,0.3,0.2,0.4,0.2,0.9c0,0.8-0.1,1.1-0.7,1.7
	c-0.8,0.9-2.3,1.7-4.2,2.1c-0.8,0.2-0.8,0.2-0.8,0c0-0.2-0.3-0.8-0.8-1.6c-0.6-0.9-0.8-1.4-1-2.1c-0.3-0.8-0.3-1.3-0.3-2.1
	c0-0.8,0.1-1.1,0.4-1.7c0.3-0.5,0.4-0.7,1.3-1.9c1.6-2.1,2.2-3.3,2.4-5c0.2-1.5,0.5-2.3,1-2.9c0.3-0.4,0.4-0.5,0.4-0.8
	c0-0.2-1.1-2.4-2.8-5.3c-2.6-4.7-2.6-4.7-2.5-4.7c0,0,1.2,1.9,2.7,4.2c1.9,3,3.3,5,3.4,5.2c0.3,0.3,0.7,0.4,1,0.4
	c0.3,0,0.6-0.1,0.9-0.2c0.4-0.2,0.2-0.4-0.4-1.2c0,0,0,0,0-0.1c-0.3-0.4-0.7-0.8-1.1-1.5l0,0c0,0-0.1-0.1-0.1-0.1
	C635.2,236.2,635.1,235.9,634.9,235.6z M630.9,251.7c0.4,0.3,0.5,0.8,0.3,1.2c-0.2,0.4-0.6,0.5-0.9,0.3c-0.2-0.2-0.2-0.3,0-0.6
	c0.2-0.2,0.1-0.3-0.1-0.4c-0.1-0.1-0.2-0.1-0.2-0.2C630,251.6,630.6,251.4,630.9,251.7z"/>
<path class="st11" d="M638,230.6c-0.4-0.1-0.5-0.1-0.3-0.1c0.4-0.1,1.3,0,2,0.2c1.5,0.4,2.9,1.3,4.4,3l0.4,0.4l0.6-0.1
	c2.4-0.4,4.8-0.1,6.8,0.9c0.6,0.3,1.4,0.8,1.5,0.9c0,0,0.1,0.3,0.2,0.6c0.2,1,0.1,1.8-0.2,2.4c-0.2,0.3-0.2,0.4-0.1,0.7
	c0.1,0.2,0.3,0.4,0.6,0.4c0.5,0,1-0.8,1.3-2l0.1-0.4l0.2,0.2c1.1,1.2,1.9,3,2.1,4.2l0,0.3l-0.2-0.3c-0.3-0.5-0.6-0.8-1-1.1
	c-0.7-0.5-1.5-0.7-3.5-0.8c-1.8-0.1-2.9-0.3-3.9-0.6c-1.8-0.6-2.6-1.4-4.7-4.1c-0.9-1.2-1.5-1.9-2.1-2.5
	C640.8,231.5,639.6,230.9,638,230.6z"/>
<path class="st11" d="M653.8,233.4c0-0.8,0.2-1.4,0.4-1.9c0.1-0.2,0.2-0.3,0.2-0.3c0,0,0,0.2-0.1,0.3c-0.2,0.5-0.2,1.1-0.1,1.9
	c0.1,1,0.2,1.1,1.2,2.2c0.5,0.5,1,1.1,1.2,1.4l0.4,0.5l-0.4-0.3c-0.4-0.4-1.5-1.3-1.7-1.4c-0.2-0.1-0.2-0.1-0.3,0
	c-0.1,0.1-0.1,0.2-0.1,0.9c0,1-0.2,1.6-0.5,2.2c-0.2,0.3-0.2,0.3,0-0.1c0.1-0.3,0.1-0.4,0.1-1.3c0-1.9-0.2-2.4-1.5-3.1
	c-0.3-0.2-0.8-0.5-1.2-0.6c-0.3-0.2-0.6-0.3-0.6-0.3c0,0,1.3,0.4,1.8,0.5c0.8,0.3,0.9,0.3,1,0.3
	C653.7,234.1,653.7,233.9,653.8,233.4z"/>
<path class="st11" d="M637.5,231.9c-0.1,1.5,0.4,3.4,1.3,4.7c0.7,1,1.8,1.7,2.6,1.8c0.5,0.1,0.7-0.1,0.4-0.5
	c-0.3-0.5-0.7-1.2-0.8-1.6c-0.1-0.2-0.2-0.8-0.3-1.3c-0.4-1.8-0.8-2.5-1.6-3c-0.3-0.2-1-0.4-1.3-0.5l-0.2,0L637.5,231.9z"/>
<path class="st11" d="M652.7,246.1c-4.2-1.7-5.7-3.2-5.7-5.8c0-0.4,0-0.7,0-0.7c0,0,0.2,0.1,0.4,0.3c0.8,0.7,1.8,1,4.4,1.4
	c1.6,0.2,2.4,0.4,3.3,0.7c2.6,0.9,4.2,2.6,4.5,5.1c0.1,0.7,0,2-0.1,2.7c-0.2,0.5-0.6,1.5-0.7,1.6c0,0-0.1-0.1-0.1-0.3
	c0-0.9-0.5-1.8-1.3-2.4C656.6,247.8,655.5,247.2,652.7,246.1z"/>
<path class="st11" d="M649.5,245.9c0.1,0.2,0.2,0.6,0.2,0.9c0.3,2.1-0.7,3.7-2.8,4.4c-0.2,0.1-1.1,0.3-1.9,0.4
	c-1.7,0.3-2.4,0.5-3.2,0.9c-0.5,0.3-1.2,0.7-1.1,0.7c0,0,0.1,0,0.3-0.1c0.9-0.4,2-0.5,3.6-0.6c0.6,0,1.3-0.1,1.6-0.1
	c1.4-0.2,2.4-0.6,3.2-1.4c0.4-0.4,0.7-0.9,0.9-1.5c0.1-0.4,0.2-0.5,0.2-1.2c0-0.7,0-0.8-0.2-1.2c-0.2-0.5-0.4-1-0.7-1.3l-0.2-0.2
	L649.5,245.9z"/>
<path class="st11" d="M651.6,250.3c-0.6-1.2-0.7-2.4-0.4-3.5c0-0.1,0.1-0.2,0.1-0.2c0,0,0.2,0.1,0.3,0.2c0.2,0.2,0.8,0.5,2.2,1.2
	c1.7,1,2.7,1.7,3.4,2.5c0.6,0.7,0.9,1.6,1.1,2.6c0.1,0.6,0,2-0.1,2.6c-0.5,1.9-1.5,3.3-3.1,4.2c-0.2,0.1-0.4,0.2-0.4,0.2
	c0,0,0.1-0.2,0.2-0.5c0.5-1.1,0.6-2.2,0.2-3.4c-0.3-0.7-0.7-1.6-1.7-3.1C652.2,251.4,651.9,250.9,651.6,250.3z"/>
<path class="st11" d="M641.1,254.3c-1.8,0.3-3.7,1.3-5.3,2.6l-0.5,0.4l0.4,0.1c2.1,0.4,2.7,0.6,4.2,2.2c0.8,0.9,1.1,1.1,1.8,1.3
	c1,0.3,2.1-0.2,2.4-1.2c0.2-0.4,0.1-1.1,0-1.5c-0.4-0.8-1.7-1.1-2.3-0.5c-0.5,0.5-0.3,1.3,0.3,1.4c0.2,0,0.1,0,0-0.1
	c-0.3-0.1-0.4-0.3-0.4-0.6c0-0.7,0.7-1,1.4-0.7c0.5,0.2,0.7,0.5,0.7,1c0,0.8-0.7,1.4-1.5,1.3c-0.4-0.1-0.9-0.3-1.2-0.6
	c-0.7-0.8-0.4-2.1,0.5-2.5c0.8-0.4,1.7-0.3,2.5,0.2c0.9,0.6,1.3,1.1,2,2.9c0.3,0.6,0.6,1.2,0.7,1.4c0.7,1.1,1.6,1.6,2.6,1.6
	c0.6,0,1-0.1,1.5-0.4c0.4-0.2,1-0.6,0.9-0.6c0,0-0.2,0-0.4,0.1c-1.1,0.4-2.3,0.4-2.9-0.1c-0.4-0.3-0.8-0.9-0.9-1.7
	c0-0.1-0.1-0.7-0.2-1.3c-0.2-1.5-0.4-2.2-1-3c-0.5-0.8-1.5-1.5-2.7-1.7C643.2,254.3,641.9,254.2,641.1,254.3z"/>
<path class="st11" d="M641.1,241.6c0.6,0.3,1.1,1,0.9,1.6c-0.1,0.6-1.1,1.1-2.3,1.1c-0.6,0-0.8-0.1-1-0.4c-0.1-0.2-0.2-0.8-0.1-1.1
	c0.2-0.6,0.7-1.1,1.2-1.3C640.1,241.3,640.8,241.4,641.1,241.6z M640.9,241.8c-0.6-0.3-1.4-0.1-1.5,0.5c0,0.3,0.5,0.6,0.9,0.6
	c0.3,0,0.7-0.2,0.8-0.4C641.3,242.3,641.2,242,640.9,241.8z"/>
<path class="st12" d="M642,334.1l18.1,10.5v20.9L642,375.9l-18.1-10.5v-20.9L642,334.1z"/>
<path class="st13" d="M634.5,342.5h15l1.8,7.6h-18.6L634.5,342.5z M638.8,355.6l-1.6-4.3h9.7l-1.6,4.3l0.5,4.8H642h-3.7L638.8,355.6
	z M643.6,365.4v-1.5l3.4-3.2v-5.1l4.4-2.9l5,3.8l-6.8,11.9h-2.7L643.6,365.4z M627.7,356.5l5-3.7l4.4,2.8v5.1l3.4,3.2v1.5l-3.2,3
	h-2.8L627.7,356.5z"/>
<path class="st14" d="M74,23h32c11,0,20,9,20,20v93"/>
<path class="st14" d="M74,355h32c11,0,20-9,20-20v-93"/>
<path class="st14" d="M168,188h65"/>
<path class="st14" d="M74,136h72c11,0,20,9,20,20v66c0,11-9,20-20,20H74"/>
<path class="st14" d="M590,23h-32c-11,0-20,9-20,20v93"/>
<path class="st14" d="M590,355h-32c-11,0-20-9-20-20v-93"/>
<path class="st14" d="M496,188h-65"/>
<path class="st14" d="M590,136h-72c-11,0-20,9-20,20v66c0,11,9,20,20,20h72"/>
<path class="st15" d="M294.4,190c0-16.7,10.7-30.7,25.7-35.7l-4-14.8c-21.4,6.7-37,26.8-37,50.5c0,13.8,5.3,26.3,13.9,35.8
	l10.8-10.8C297.9,208.3,294.4,199.5,294.4,190z"/>
<path class="st16" d="M383.6,201.5l-49.8-13.4l-13.4-49.7c3.7-0.9,7.6-1.3,11.6-1.3c29.2,0,52.9,23.7,52.9,52.9
	C384.8,193.9,384.4,197.8,383.6,201.5z"/>
<path class="st17" d="M382.4,205.8l-14.8-4c-5,14.9-19.1,25.7-35.7,25.7c-9.6,0-18.3-3.6-24.9-9.5l-10.8,10.9
	c9.4,8.7,22,13.9,35.8,13.9C355.6,242.8,375.7,227.2,382.4,205.8z"/>
<path class="st15" d="M303.8,214.9l-10.9,10.8c-8.9-9.7-13.8-22.4-13.8-35.8c0-14.2,5.5-27.5,15.4-37.4c6-6,13.4-10.5,21.5-13
	l3.4,15.1c-5.2,1.9-10,4.9-14,8.8c-6.9,6.9-10.8,16-11,25.7C294.2,198.7,297.5,207.8,303.8,214.9z"/>
<path class="st16" d="M331.9,189.9l-11.5-51.6c8.6-1.9,17.6-1.6,26.1,0.9c8.6,2.5,16.6,7.2,22.9,13.6c6.5,6.5,11.2,14.6,13.6,23.5
	c2.2,8.2,2.4,16.9,0.5,25.2L331.9,189.9z"/>
<path class="st17" d="M358.3,235.6c-12.3,7.1-26.5,9-40.1,5.4c-8.2-2.2-15.8-6.4-22.1-12.1L307,218c6.9,6.1,15.7,9.4,24.9,9.4
	c10,0,19.4-3.9,26.5-11c3.9-3.9,7-8.7,8.8-14l15.1,3.4C378.4,218.4,369.9,229,358.3,235.6z"/>
<path class="st18" d="M22,0L8.5,13.5l5,5L22,9.9l8.5,8.5l5-5L22,0z M0,22l5,5l5-5l-5-5L0,22z M34.1,22l5,5l5-5l-5-5L34.1,22z
	 M30.5,25.5l5,5L22,44L8.5,30.5l5-5L22,34L30.5,25.5z M22,17l5,5l-5,5l-5-5l0.9-0.9l0.4-0.4L22,17z"/>
<path class="st19" d="M31.8,137.9c-0.9,4.6-4.9,8.1-9.8,8.1c-5.5,0-10-4.5-10-10s4.5-10,10-10c4.9,0,8.9,3.5,9.8,8.1h10.1
	C41,124,32.4,116,22,116c-11,0-20,9-20,20c0,11,9,20,20,20c10.4,0,19-8,19.9-18.1H31.8z"/>
<path class="st20" d="M44,249.9v-2.3c0-0.2-0.2-0.4-0.4-0.3l-10.9,3.2c-0.1,0-0.1,0-0.2,0.1c-1.2,1.3-2.2,2.2-2.4,2.4l0,0
	c-0.7,0.6-1.5,0.9-2.4,0.9h-3.9v-4.1H27c0.1,0,0.2,0,0.2-0.1l0.4-0.4c0.2-0.2,0.4-0.4,0.6-0.6c0,0,0,0,0.1-0.1
	c0.1-0.1,0.3-0.3,0.4-0.4c0.2-0.2,0.3-0.3,0.5-0.5c0.2-0.3,0.5-0.5,0.7-0.8c0.2-0.2,0.3-0.4,0.5-0.6c0.2-0.2,0.3-0.4,0.5-0.7
	c0.1-0.1,0.1-0.2,0.2-0.3c0.1-0.1,0.1-0.2,0.2-0.3c0.1-0.2,0.2-0.4,0.3-0.5c0.3-0.5,0.6-1,0.8-1.5c0.1-0.2,0.2-0.5,0.3-0.7
	c0,0,0-0.1,0-0.1c0.1-0.3,0.2-0.5,0.2-0.8c0.1-0.6,0.2-1.2,0.1-1.9c0-0.2,0-0.4-0.1-0.6v0c0-0.1,0-0.3-0.1-0.4
	c-0.1-0.6-0.3-1.2-0.6-1.8c-0.1-0.2-0.2-0.4-0.3-0.6c-0.2-0.4-0.5-0.9-0.8-1.3c-0.1-0.1-0.1-0.2-0.2-0.3c0-0.1-0.1-0.1-0.1-0.2
	c-0.2-0.3-0.4-0.5-0.6-0.8c0-0.1-0.1-0.1-0.1-0.2c-0.1-0.2-0.2-0.3-0.4-0.5c-0.1-0.1-0.1-0.2-0.2-0.3c-0.2-0.2-0.4-0.5-0.6-0.7
	c-0.7-0.8-1.4-1.5-2-2.1c-0.1-0.1-0.2-0.2-0.4-0.4c-0.5-0.5-0.9-0.9-1.3-1.2c-0.1-0.1-0.2-0.2-0.3-0.3c-0.1-0.1-0.1-0.1-0.2-0.2
	c-0.1-0.1-0.2-0.2-0.3-0.2c-0.1,0-0.1-0.1-0.1-0.1c0,0-0.1,0-0.1,0l-0.4-0.1V224c0-0.6-0.2-1.1-0.6-1.5s-0.9-0.6-1.4-0.6
	c-1.1,0-2,0.9-2,2.1v2.4l-0.2-0.1l-0.6-0.2l-0.5-0.1c0,0,0,0,0,0c0,0,0,0,0,0h0l-3.9-1.1c-0.2,0-0.3,0.1-0.2,0.3l0.6,1.2
	c0,0.1,0.1,0.2,0.1,0.3c0,0.1,0.1,0.1,0.1,0.2c0.1,0.2,0.2,0.4,0.3,0.6c0.1,0.2,0.2,0.4,0.3,0.6c0,0.1,0.1,0.2,0.1,0.3
	c0.2,0.4,0.3,0.8,0.5,1.2c0.1,0.4,0.3,0.7,0.4,1.1c0.4,0.9,0.7,1.9,1,2.9c0.1,0.2,0.1,0.4,0.2,0.7c0,0.1,0,0.2,0.1,0.3l0,0.2
	c0.1,0.5,0.2,0.9,0.3,1.4c0.1,0.3,0.1,0.6,0.1,0.9c0,0.4,0.1,0.7,0.1,1.1c0,0.3,0,0.7,0,1c0,0.8-0.1,1.6-0.2,2.4c0,0,0,0.1,0,0.1
	c0,0.2-0.1,0.4-0.2,0.6c-0.1,0.2-0.1,0.4-0.2,0.6c0,0.1-0.1,0.1-0.1,0.2c0,0,0,0,0,0c-0.1,0.1-0.1,0.3-0.2,0.4
	c-0.4,0.9-0.8,1.8-1.3,2.6c-0.7,1.2-1.4,2.3-1.8,3c0,0-0.1,0.1-0.1,0.1c0,0.1-0.1,0.1-0.1,0.1c-0.2,0.2,0,0.5,0.3,0.5h5.1v4.1h-5.1
	c-1.4,0-2.7-0.8-3.3-2.1c-0.3-0.6-0.4-1.3-0.4-2c0-0.2-0.1-0.4-0.3-0.4H0.3c-0.2,0-0.3,0.1-0.3,0.3v0.2c0,6.7,5.3,12.2,11.9,12.2
	h18.6c3.5,0,5.5-3.2,7.4-6.4c0.5-0.9,1.1-1.8,1.7-2.6c1-1.4,3.5-2.6,4.2-2.9C43.9,250.2,44,250.1,44,249.9z M2.8,244.6l-0.2,0.2
	c-0.1,0.2,0,0.5,0.3,0.5h9.5c0.1,0,0.2-0.1,0.3-0.1c0.1-0.2,0.2-0.4,0.3-0.6c0.8-1.4,1.6-2.9,1.8-4.1c0.6-2.7-0.7-7.1-2.3-10.6
	c-0.1-0.2-0.4-0.3-0.6,0L2.8,244.6z"/>
<path class="st21" d="M10.5,357.7l1.2-8.8l-10.1-7l9.2,3.1l2.2-3.3l8-4.9l17.5,9.7l0.9,14.8L31.5,372l-6.2,0.9l3.2-5.9v-5.6
	l-2.3-4.4l-2.4-1.6l-3.6,3.7v4l-2.8,2.7l-3.6,0.4l-1.6,0.9l-2.6-0.8l-1.1-3.9l2-2.8V357.7z"/>
<path class="st22" d="M26.6,341.8c-1.9-0.4-4-0.3-4-0.3s-0.7,3.2-5,4C17.6,345.6,23.3,347.5,26.6,341.8z"/>
<path class="st22" d="M28.3,370.8c2.3-1.8,4.1-4.3,4.9-7.2c0-0.1,0.4-0.3,0.6-0.4c0.4-0.2,0.7-0.4,0.8-0.7c0.1-0.8,0.2-1.7,0.2-2.6
	c0-0.3-0.3-0.7-0.7-1c-0.3-0.2-0.5-0.5-0.5-0.7c-0.4-3.3-1.9-6.4-4.3-8.6l-0.3,0.3c2.4,2.2,3.9,5.2,4.2,8.4c0,0.3,0.3,0.6,0.6,0.9
	c0.3,0.2,0.5,0.5,0.5,0.7c0,0.8-0.1,1.7-0.2,2.5c0,0.1-0.4,0.3-0.6,0.4c-0.4,0.2-0.7,0.4-0.8,0.7c-0.9,3.1-2.9,5.8-5.5,7.5
	c0.5-1,2-4.3,2.8-6l-0.1-5.4l-4.6-4.5l-2.6,0.4l-2.9,4.7c0,0,1.3,1.7-0.5,3.7c-1.9,2-3.3,2.4-3.3,2.4l-1.3-0.7
	c0.4-0.5,1.2-1.3,1.8-1.8c1.1-0.9,2.1-0.9,2.1-1.9c0-2-2.1-1.4-2.1-1.4l-0.8,0.7l-0.3,2.7l-1.6,2l-0.2,0l-2.6-0.6
	c0,0,1.6-0.8,1.9-1.8c0.3-0.9-0.5-3.9-0.5-4.1c0,0,0.8,0.7,1.1,1.7c0.6-1.6,1.3-3.1,1.6-3.3c0.2-0.1,3.2-1.7,3.2-1.7l-1,2.6l0.7-0.4
	l1.7-4.3c0,0,1.7-0.8,3-0.8c2.3,0,5.7-2.8,4.1-7.9c0.4,0.2,8,4,9.3,11.4C37,362.4,33.8,367.7,28.3,370.8z"/>
<path class="st23" d="M19.7,342.6c0.8-1,0.5-2.4,0.5-2.4l-2.4,3.6C17.7,343.8,18.6,343.8,19.7,342.6z"/>
<path class="st23" d="M11.5,362.3l0.3-1.5c0,0-1.2,2.1-1.3,2.4c-0.1,0.3,0.1,0.9,0.5,0.9c0.5,0,1.1-0.7,1.1-1.2
	C12.1,362.2,11.5,362.3,11.5,362.3z"/>
<path class="st23" d="M33.1,339.2c0,0,1.8,0.1,3.7,0.3c-4.2-3.3-8.3-4.3-11.5-4.3c-4.5,0-7.6,1.9-7.7,2l1.4-2.3c0,0-5.7-0.5-7.7,5.5
	c-0.5-1.3-1-3.1-1-3.1s-2.9,2.6-1.6,6.9c-3.4-1.2-8.2-2.9-8.4-3c-0.3,0-0.3,0.1-0.3,0.1s-0.1,0.1,0.1,0.3c0.4,0.3,8,6,9.7,7.1
	c-0.4,1.3-0.4,1.9,0,2.5c0.5,0.8,0.5,1.3,0.5,1.9s-0.7,6-0.9,6.6c-0.1,0.7-1.7,3-1.6,3.7c0.1,0.7,1,3.6,1.9,4
	c0.6,0.2,2.1,0.7,3.2,0.7c0.4,0,0.7-0.1,0.8-0.2c0.6-0.5,0.8-0.7,1.2-0.7c0,0,0.1,0,0.1,0c0.2,0,0.4,0,0.7,0c0.6,0,1.3-0.1,1.9-0.6
	c0.8-0.8,2.2-1.9,2.6-2.4c0.5-0.7,0.8-1.6,0.7-2.6c-0.1-0.9,0.4-1.6,0.9-2.4c0.7-0.9,2-2.5,2-2.5c2.5,1.9,4.1,4.8,4.1,8
	c0,5.7-4.9,10.2-11,10.2c-0.9,0-1.9-0.1-2.8-0.3c2.8,1,5.2,1.3,7.1,1.3c4.1,0,6.3-1.5,6.3-1.5s-0.8,1-2,2.1c0,0,0,0,0,0
	c6.8-0.9,10.1-6.5,10.1-6.5s-0.3,1.8-0.6,3.1c9-6.8,7.5-15.3,7.5-15.6c0.1,0.1,1,1.2,1.5,1.8C45.3,344,33.1,339.2,33.1,339.2z
	 M19.2,363.1c-0.1,0.2-0.8,0.7-1.2,1.1c-0.4,0.4-0.9,0.8-1.3,1.2c-0.1,0.1-0.4,0.2-0.9,0.2c-0.1,0-0.3,0-0.4,0c-0.1,0-0.1,0-0.2,0
	s-0.1,0-0.1,0c-0.1,0-0.2,0-0.3,0c0.5-0.7,2.1-2.4,2.7-2.8c0.7-0.4,1-0.9,0.6-1.6c-0.4-0.8-1.5-0.6-1.5-0.6s0.6-0.3,1.2-0.3
	c-0.7-0.2-1.6,0-2,0.4c-0.4,0.4-0.4,1.8-0.5,2.7c-0.2,0.9-0.8,1.4-1.7,2.3c-0.5,0.5-0.9,0.6-1.2,0.6c-0.6-0.1-1.3-0.3-1.9-0.5
	c-0.4-0.5-0.9-2-1.1-2.7c0.1-0.4,0.5-1.1,0.8-1.6c0.4-0.8,0.7-1.3,0.8-1.7c0.1-0.6,0.6-4.4,0.8-6c0.5,0.6,1.1,1.6,1,2.3
	c1.1-1.5,0.3-2.9-0.1-3.5c-0.3-0.6-0.8-1.7-0.4-3c0.4-1.2,1.7-4.7,1.7-4.7s0.4,0.8,1.1,0.6c0.6-0.1,5.6-7.6,5.6-7.6s1.3,2.9-0.1,5.1
	c-1.5,2.1-2.9,2.5-2.9,2.5s2,0.4,3.8-1c0.8,1.8,1.5,3.6,1.5,3.9c-0.1,0.3-1.6,3.7-1.7,4c-0.1,0.1-0.6,0.2-0.9,0.3
	c-0.6,0.2-1,0.3-1.1,0.4c-0.3,0.2-1.4,3.4-2,5c-0.7,0.2-1.3,0.5-1.8,1.3c0.3-0.2,1.1-0.3,1.6-0.4c0.5,0,2.1,0.8,2.5,2.4
	c0,0,0,0,0,0.1C19.7,362.1,19.5,362.6,19.2,363.1z M15.8,363.5c0.3-0.5,0.3-1.3,0.3-1.5c0-0.3,0.1-0.7,0.4-0.8c0.3-0.1,1,0,1,0.5
	c0,0.5-0.5,0.6-0.9,0.9C16.4,362.9,15.8,363.4,15.8,363.5z M30.3,356.6c0.4-1.9,0.4-3.5,0.3-4.8c1.4,1.9,2.3,4.2,2.5,6.5
	c0,0.3,0.3,0.6,0.6,0.9c0.3,0.2,0.5,0.5,0.5,0.7c0,0.8-0.1,1.7-0.2,2.5c0,0.1-0.4,0.3-0.6,0.4c-0.4,0.2-0.7,0.4-0.8,0.7
	c-0.8,2.8-2.5,5.3-4.8,7C31.2,367,32.9,361.2,30.3,356.6z M28,370.9c2.4-1.8,4.2-4.4,5-7.2c0-0.1,0.4-0.3,0.6-0.4
	c0.4-0.2,0.7-0.4,0.8-0.7c0.1-0.8,0.2-1.7,0.2-2.6c0-0.3-0.3-0.7-0.7-1c-0.2-0.2-0.5-0.5-0.5-0.7c-0.3-2.7-1.3-5.2-3-7.2
	c-0.7-4.4-3.6-5.7-3.7-5.7c0.1,0.1,2,2.8,0.7,6c-1.3,3.2-4.8,2.7-5.1,2.8c-0.3,0-1.4,1.5-2.8,4.1c-0.2-0.1-0.9-0.3-1.8-0.1
	c0.7-1.8,1.6-4.4,1.8-4.6c0.1-0.1,0.6-0.2,1-0.3c0.7-0.2,1-0.3,1.1-0.4c0.1-0.1,0.4-0.9,0.8-1.8c0.3,0,1.2-0.1,1.2-0.1
	c0.1-0.1,0.8-1.9,0.8-2.1c0-0.2-1.4-3.7-2-5.1c0.3-0.3,0.5-0.7,0.8-1.1c7.4,0.8,13.3,7.1,13.3,14.8C36.4,363.3,33,368.5,28,370.9z"
	/>
<path class="st23" d="M18.3,351.2c0.7-0.8,0.3-2.3-0.9-2.5c0.3-0.8,0.8-2.3,0.8-2.3s-3.7,5.8-4,5.9s-0.7-1.2-0.7-1.2
	c-0.7,2.7,1.2,3,1.4,2.2C15.9,353.1,17.6,352,18.3,351.2z"/>
<path class="st24" d="M15.2,352.7l1.9-3.2c0,0,1.1,0.5,0.5,1.4C16.9,351.9,15.2,352.7,15.2,352.7z"/>
<path class="st25" d="M38.5,367.6c-0.5,0.7-1.2,1.5-1.9,2.2c4.7-9,0.2-17.3,0-17.6c0.3,0.3,0.7,0.7,0.9,1
	C41.2,357.3,41.6,363.3,38.5,367.6z"/>
<path class="st25" d="M42.9,356c-1.6-4.4-4-8.1-9.1-11.5c-4.9-3.3-10.2-3-10.5-3c0,0-0.1,0-0.1,0c0.2-0.1,0.4-0.1,0.5-0.1
	c1.1-0.4,2.6-0.7,4-0.8c3.8-0.5,7.7,0.8,10.4,3.6c0,0,0,0,0.1,0.1C41.2,347.4,42.8,351.4,42.9,356z"/>
<path class="st25" d="M32.6,338c-5.4-1-8.9-0.5-11.4,0.4c-0.1-0.3-0.3-0.9-0.5-1.3c-0.8,0.9-1.6,2-2.1,2.7c-1.4,0.9-2,1.9-2,1.9
	c0.8-2.7,3.1-4.8,6-5.3c0.8-0.1,1.7-0.2,2.6-0.2C27.7,336.2,30.2,336.8,32.6,338z"/>
<path class="st25" d="M12.6,345c-4.2-0.1-2.8-5.1-2.8-5.4C9.9,339.7,10.1,343.5,12.6,345z"/>
<path class="st25" d="M16.8,336.1c-3.3,2-2.6,6.7-2.6,6.7C11.1,338,16.5,336.2,16.8,336.1z"/>
<path class="st21" d="M11.4,346.3c0.2,0.2,0.4,0.5,0.2,1c-0.1,0.3-0.4,0.2-0.7,0.1c-0.4-0.2-3.1-1.7-5.4-3.3
	C8.2,345,10.9,346,11.4,346.3C11.3,346.3,11.4,346.3,11.4,346.3z"/>
<g id="Left" transform="translate(74.000000, 23.000000)">
	<g id="Group-2">
		<path id="Rectangle" class="st14" d="M0,0h32c11,0,20,9,20,20v93l0,0"/>
		<path id="Rectangle_00000133519349515812009250000010226791882230113701_" class="st26" d="M8,0h24c11,0,20,9,20,20v85l0,0"/>
	</g>
	
		<g id="Group-2-Copy" transform="translate(26.000000, 275.500000) scale(1, -1) translate(-26.000000, -275.500000) translate(0.000000, 219.000000)">
		<path id="Rectangle_00000006668933846824023110000004197490030521611904_" class="st14" d="M0,0h32c11,0,20,9,20,20v93l0,0"/>
		<path id="Rectangle_00000167371605570090520300000005063338624797705632_" class="st26" d="M8,0h24c11,0,20,9,20,20v85l0,0"/>
	</g>
	<g id="Group-4" transform="translate(94.000000, 164.500000)">
		<line id="Path_00000139271797374697315930000003079224722847610516_" class="st14" x1="0" y1="0.5" x2="65" y2="0.5"/>
		<line id="Path_00000044869038387831819200000012705193096548088480_" class="st26" x1="11" y1="0.5" x2="61" y2="0.5"/>
	</g>
	<g id="Group-3" transform="translate(0.000000, 113.000000)">
		<path id="Rectangle_00000135688579558904505370000006123415200560040856_" class="st14" d="M0,0h72c11,0,20,9,20,20v66
			c0,11-9,20-20,20H0l0,0"/>
		<path id="Rectangle_00000152249603094607339730000012752180943949459612_" class="st26" d="M8,0h64c11,0,20,9,20,20v66
			c0,11-9,20-20,20H8l0,0"/>
	</g>
</g>
<g id="Right" transform="translate(510.500000, 189.000000) scale(-1, 1) translate(-510.500000, -189.000000) translate(431.000000, 23.000000)">
	<g id="Group-2_00000163054483759524782360000017563815837328065698_">
		<path id="Rectangle_00000089558359797737346860000003718929203566724267_" class="st14" d="M0,0h32c11,0,20,9,20,20v93l0,0"/>
		<path id="Rectangle_00000037667079640150153160000016923946670055093417_" class="st26" d="M8,0h24c11,0,20,9,20,20v85l0,0"/>
	</g>
	
		<g id="Group-2-Copy_00000000938874637908101840000004787267676725887163_" transform="translate(26.000000, 275.500000) scale(1, -1) translate(-26.000000, -275.500000) translate(0.000000, 219.000000)">
		<path id="Rectangle_00000182530611373809618870000008850423944118185097_" class="st14" d="M0,0h32c11,0,20,9,20,20v93l0,0"/>
		<path id="Rectangle_00000058590534519503344310000010417769737428116147_" class="st26" d="M8,0h24c11,0,20,9,20,20v85l0,0"/>
	</g>
	<g id="Group-4_00000011752090375091580280000000928751016941234360_" transform="translate(94.000000, 164.500000)">
		<line id="Path_00000163038927175892302220000006254331852393990281_" class="st14" x1="0" y1="0.5" x2="65" y2="0.5"/>
		<line id="Path_00000112619858878036365720000007475690114709894332_" class="st26" x1="11" y1="0.5" x2="61" y2="0.5"/>
	</g>
	<g id="Group-3_00000001629382824415409840000001092876445671569552_" transform="translate(0.000000, 113.000000)">
		<path id="Rectangle_00000021807283578081563350000003867045682051041166_" class="st14" d="M0,0h72c11,0,20,9,20,20v66
			c0,11-9,20-20,20H0l0,0"/>
		<path id="Rectangle_00000057841762099650394890000017210472643665183664_" class="st26" d="M8,0h64c11,0,20,9,20,20v66
			c0,11-9,20-20,20H8l0,0"/>
	</g>
</g>
</svg>
