<?xml version="1.0" encoding="UTF-8"?>
<svg width="142px" height="44px" viewBox="0 0 142 44" version="1.1" xmlns="http://www.w3.org/2000/svg" xmlns:xlink="http://www.w3.org/1999/xlink">
    <title>9434A22E-1429-4BC1-BF58-8783F8DCA8FE</title>
    <g id="Design" stroke="none" stroke-width="1" fill="none" fill-rule="evenodd">
        <g id="Onboarding_dark" transform="translate(-1055.000000, -3794.000000)">
            <g id="Components//Footer/web/dark" transform="translate(0.000000, 3634.000000)">
                <g id="Apps" transform="translate(723.000000, 122.000000)">
                    <g id="Group" transform="translate(332.000000, 37.999801)">
                        <path d="M132.494774,0 L9.5052262,0 C4.25548977,0 0,4.2590771 0,9.51217667 L0,34.4878233 C0,39.7413985 4.25548977,44 9.5052262,44 L132.494774,44 C137.74451,44 142,39.7413985 142,34.4878233 L142,9.51217667 C142,4.2590771 137.74451,0 132.494774,0" id="Fill-1" fill="#333333"></path>
                        <path d="M81.470215,24.0047864 C82.5484202,24.0047864 83.4035649,24.4842001 83.8487348,25.0145039 L83.8487348,25.0145039 L83.9172224,25.0145039 L83.9172224,24.2782614 L85.7996822,24.2782614 L85.7996822,32.3892945 C85.7996822,35.7261661 83.8316129,37.0944927 81.5039832,37.0944927 C79.3142802,37.0944927 77.9963681,35.6234345 77.5003081,34.4253759 L77.5003081,34.4253759 L79.2286706,33.7067309 C79.5368651,34.4424978 80.2897539,35.31524 81.5039832,35.31524 C82.9931145,35.31524 83.9172224,34.3911321 83.9172224,32.6627696 L83.9172224,32.6627696 L83.9172224,32.0126123 L83.8487348,32.0126123 C83.4035649,32.560038 82.5484202,33.0394518 81.470215,33.0394518 C79.2115486,33.0394518 77.1407478,31.0713824 77.1407478,28.539241 C77.1407478,25.989502 79.2115486,24.0047864 81.470215,24.0047864 Z M126.138921,24.2711273 L128.496038,30.027421 L128.565002,30.027421 L130.836509,24.2711273 L133.040005,24.2711273 L127.590955,36.7920054 L125.523959,36.7920054 L127.539589,32.3165263 L124.003913,24.2711273 L126.138921,24.2711273 Z M23.8235707,22.3210835 L28.0312821,26.577307 L12.6962265,35.2909364 C11.9680694,35.7047161 11.3098267,35.7384843 10.8242301,35.4711922 L10.8242301,35.4711922 L23.8235707,22.3210835 Z M10.465621,8.80756218 L23.3589009,21.8511344 L10.3395847,35.0221699 C10.1265119,34.7020851 10,34.2721347 10,33.7346967 L10,33.7346967 L10,10.264352 C10,9.62751181 10.1740728,9.13478106 10.465621,8.80756218 L10.465621,8.80756218 Z M94.3720558,24.0047864 C96.7163318,24.0047864 97.862549,25.8701242 98.2392312,26.8793661 L98.2392312,26.8793661 L98.4442187,27.3930237 L92.4039865,29.8909213 C92.8662783,30.7979073 93.5849232,31.2597235 94.5946408,31.2597235 C95.6038827,31.2597235 96.3054057,30.7636635 96.8190633,30.0107747 L96.8190633,30.0107747 L98.3586091,31.0371386 C97.862549,31.7729054 96.6644904,33.0394518 94.5946408,33.0394518 C92.0273043,33.0394518 90.1110763,31.0542605 90.1110763,28.5221191 C90.1110763,25.8358804 92.0444262,24.0047864 94.3720558,24.0047864 Z M50.1166539,19.00804 C52.2554668,19.00804 53.7783663,19.8470139 54.9250592,20.9423411 L54.9250592,20.9423411 L53.5733789,22.2935458 C52.7515268,21.5235351 51.6395534,20.9247435 50.1166539,20.9247435 C47.2934398,20.9247435 45.0861392,23.2005318 45.0861392,26.0237459 C45.0861392,28.8474355 47.2934398,31.1232238 50.1166539,31.1232238 C51.9477479,31.1232238 52.9912337,30.3874569 53.6585129,29.7201777 C54.2064142,29.1722763 54.5654989,28.3851437 54.7024742,27.3069385 L54.7024742,27.3069385 L50.1166539,27.3069385 L50.1166539,25.3907105 L56.5678121,25.3907105 C56.6358242,25.7331489 56.670068,26.1435993 56.670068,26.5887691 C56.670068,28.026059 56.2767395,29.8053117 55.0101932,31.0713824 C53.7783663,32.3550506 52.2045767,33.0394518 50.1166539,33.0394518 C46.2494785,33.0394518 42.9982165,29.8909213 42.9982165,26.0237459 C42.9982165,22.1565704 46.2494785,19.00804 50.1166539,19.00804 Z M61.8832164,24.0047864 C64.3815896,24.0047864 66.4181466,25.9038924 66.4181466,28.5221191 C66.4181466,31.1232238 64.3815896,33.0394518 61.8832164,33.0394518 C59.3853188,33.0394518 57.3487618,31.1232238 57.3487618,28.5221191 C57.3487618,25.9038924 59.3853188,24.0047864 61.8832164,24.0047864 Z M71.7754045,24.0047864 C74.2733021,24.0047864 76.3098592,25.9038924 76.3098592,28.5221191 C76.3098592,31.1232238 74.2733021,33.0394518 71.7754045,33.0394518 C69.2770313,33.0394518 67.2409499,31.1232238 67.2409499,28.5221191 C67.2409499,25.9038924 69.2770313,24.0047864 71.7754045,24.0047864 Z M119.835677,23.9800547 C122.107185,23.9800547 123.866938,25.2955887 123.866938,27.6531817 L123.866938,27.6531817 L123.866938,32.7436231 L121.953563,32.7436231 L121.953563,31.718686 L121.885551,31.718686 C121.424211,32.4187822 120.689871,33.0166225 119.357215,33.0166225 C117.61506,33.0166225 116.06077,31.8723077 116.06077,30.0959087 C116.06077,28.1482905 117.99079,27.1062316 119.886567,27.1062316 C120.82637,27.1062316 121.594954,27.4139505 121.953563,27.6189379 L121.953563,27.6189379 L121.953563,27.4819625 C121.936441,26.3890134 120.894858,25.7740512 119.869445,25.7740512 C119.135105,25.7740512 118.435009,26.0132825 118.059278,26.7476225 L118.059278,26.7476225 L116.299525,26.0132825 C116.914488,24.6121388 118.40029,23.9800547 119.835677,23.9800547 Z M89.1532001,19.4874537 L89.1532001,32.7655011 L87.1684844,32.7655011 L87.1684844,19.4874537 L89.1532001,19.4874537 Z M114.967345,19.4879293 L114.967345,32.7655011 L112.985959,32.7655011 L112.985959,19.4879293 L114.967345,19.4879293 Z M107.536908,19.4879293 C109.73327,19.4879293 111.892534,21.0783652 111.892534,23.6114578 C111.892534,26.1445505 109.73327,27.7349864 107.536908,27.7349864 L107.536908,27.7349864 L104.768865,27.7349864 L104.768865,32.7655011 L102.787479,32.7655011 L102.787479,19.4879293 Z M81.6409586,25.784039 C80.2721563,25.784039 79.1259391,26.9478538 79.1259391,28.539241 C79.1259391,30.1135062 80.2721563,31.2597235 81.6409586,31.2597235 C82.9931145,31.2597235 84.0541978,30.1135062 84.0541978,28.539241 C84.0541978,26.9478538 82.9931145,25.784039 81.6409586,25.784039 Z M61.8832164,25.784039 C60.5144142,25.784039 59.3339531,26.8964881 59.3339531,28.5221191 C59.3339531,30.1306281 60.5144142,31.2597235 61.8832164,31.2597235 C63.2524942,31.2597235 64.4329554,30.1306281 64.4329554,28.5221191 C64.4329554,26.8964881 63.2524942,25.784039 61.8832164,25.784039 Z M71.7754045,25.784039 C70.4066023,25.784039 69.2256656,26.8964881 69.2256656,28.5221191 C69.2256656,30.1306281 70.4066023,31.2597235 71.7754045,31.2597235 C73.1442068,31.2597235 74.3251435,30.1306281 74.3251435,28.5221191 C74.3251435,26.8964881 73.1442068,25.784039 71.7754045,25.784039 Z M120.143396,28.711887 C119.169349,28.711887 118.042156,29.1052155 118.042156,30.1301525 C118.042156,30.9325046 118.94724,31.2573455 119.596446,31.2573455 C120.740761,31.2573455 121.799942,30.3860301 121.953563,29.1561056 C121.424211,28.9002281 121.014236,28.711887 120.143396,28.711887 Z M94.4405435,25.7502708 C93.4303503,25.7502708 92.0273043,26.6396593 92.0791456,28.3851437 L92.0791456,28.3851437 L96.1170646,26.7086226 C95.8944797,26.1435993 95.2276761,25.7502708 94.4405435,25.7502708 Z M28.4380228,17.6527926 L33.3914888,20.4674457 C34.8744371,21.3097489 34.8744371,22.6890145 33.3914888,23.5317934 L33.3914888,23.5317934 L28.6254126,26.2399101 L24.2873845,21.8509918 L28.4380228,17.6527926 Z M107.587798,21.3356696 L104.768865,21.3356696 L104.768865,25.8872461 L107.587798,25.8872461 C109.06932,25.8872461 109.911148,24.6406754 109.911148,23.6114578 C109.911148,22.5627404 109.06932,21.3356696 107.587798,21.3356696 L107.587798,21.3356696 Z M11.0273151,8.43634949 C11.4867532,8.27654492 12.0650936,8.35026429 12.6962265,8.70839774 L12.6962265,8.70839774 L27.8434166,17.3150152 L23.8235707,21.3814707 Z M75.6203215,8.28115832 C77.4067082,8.28115832 78.7945348,9.71416774 78.7945348,11.4919936 C78.7945348,13.2603072 77.4067082,14.6933166 75.6203215,14.6933166 C73.8429713,14.6933166 72.4641813,13.2603072 72.4641813,11.4919936 C72.4641813,9.71416774 73.8429713,8.28115832 75.6203215,8.28115832 Z M46.5961497,8.28134857 C47.4208554,8.28134857 48.1647077,8.59905527 48.7088042,9.10652989 L48.1009761,9.66917514 C47.7019403,9.31579778 47.1763925,9.08845676 46.5961497,9.08845676 C45.2901279,9.08845676 44.2837396,10.1676132 44.2837396,11.4921838 C44.2837396,12.8158032 45.2901279,13.8859231 46.5961497,13.8859231 C47.7200134,13.8859231 48.5361582,13.2333877 48.5908532,12.1989385 L46.813503,12.1989385 L46.813503,11.4641229 L49.5520586,11.4641229 C49.5520586,13.6600089 48.3825365,14.6930312 46.5961497,14.6930312 C44.8183239,14.6930312 43.4400095,13.2604974 43.4400095,11.4921838 C43.4400095,9.71435798 44.8183239,8.28134857 46.5961497,8.28134857 Z M54.4051236,8.3542594 L54.4051236,9.14281885 L51.5481413,9.14281885 L51.5481413,11.1384735 L54.0422341,11.1384735 L54.0422341,11.9275086 L51.5481413,11.9275086 L51.5481413,13.8137732 L54.4954893,13.8137732 L54.4954893,14.6023326 L50.7053625,14.6023326 L50.7053625,8.3542594 L54.4051236,8.3542594 Z M59.8741496,8.3542594 L59.8741496,9.15185541 L57.9788484,9.15185541 L57.9788484,14.6023326 L57.1265573,14.6023326 L57.1265573,9.15185541 L55.2307805,9.15185541 L55.2307805,8.3542594 L59.8741496,8.3542594 Z M69.6696464,8.3542594 L69.6696464,9.15185541 L67.7748208,9.15185541 L67.7748208,14.6023326 L66.9225298,14.6023326 L66.9225298,9.15185541 L65.026753,9.15185541 L65.026753,8.3542594 L69.6696464,8.3542594 Z M80.9267368,8.35411672 L83.7470972,13.0245955 L83.7470972,8.35411672 L84.5903516,8.35411672 L84.5903516,14.60219 L83.7832434,14.60219 L80.936249,9.89604056 L80.936249,14.60219 L80.0925189,14.60219 L80.0925189,8.35411672 L80.9267368,8.35411672 Z M63.920249,8.35392648 L63.920249,14.6019997 L63.0774702,14.6019997 L63.0774702,8.35392648 L63.920249,8.35392648 Z M75.6203215,9.09777869 C74.3142996,9.09777869 73.3079113,10.167423 73.3079113,11.4919936 C73.3079113,12.8160885 74.3142996,13.8766962 75.6203215,13.8766962 C76.9353799,13.8766962 77.9417682,12.8160885 77.9417682,11.4919936 C77.9417682,10.167423 76.9353799,9.09777869 75.6203215,9.09777869 Z" id="Combined-Shape" fill="#B3B3B3"></path>
                    </g>
                </g>
            </g>
        </g>
    </g>
</svg>