<?xml version="1.0" encoding="UTF-8"?>
<svg width="170px" height="44px" viewBox="0 0 170 44" version="1.1" xmlns="http://www.w3.org/2000/svg" xmlns:xlink="http://www.w3.org/1999/xlink">
    <title>EE23F41D-7D49-4C39-A545-AFC9392F475D</title>
    <g id="Design" stroke="none" stroke-width="1" fill="none" fill-rule="evenodd">
        <g id="Onboarding_dark" transform="translate(-875.000000, -3794.000000)">
            <g id="Components//Footer/web/dark" transform="translate(0.000000, 3634.000000)">
                <g id="Apps" transform="translate(723.000000, 122.000000)">
                    <g id="Group" transform="translate(152.000000, 37.999652)">
                        <path d="M160.52352,0 L9.47648021,0 C4.24262019,0 0,4.2590771 0,9.51217667 L0,34.4878233 C0,39.7413985 4.24262019,44 9.47648021,44 L160.52352,44 C165.75738,44 170,39.7413985 170,34.4878233 L170,9.51217667 C170,4.2590771 165.75738,0 160.52352,0" id="Fill-1" fill="#333333"></path>
                        <path d="M96.1819644,23.00187 C98.7264716,23.00187 100.403468,25.0132198 100.403468,28.1198967 C100.403468,31.2351345 98.7359838,33.2369721 96.2195374,33.2369721 C94.9192229,33.3045086 93.6940545,32.6239123 93.0657753,31.4824511 L93.0182144,31.4824511 L93.0182144,36.4482829 L90.960255,36.4482829 L90.960255,23.1069796 L92.9521048,23.1069796 L92.9521048,24.7744641 L92.9896779,24.7744641 C93.6464937,23.6406127 94.8726132,22.9595408 96.1819644,23.00187 Z M107.215709,23.00187 C109.760216,23.00187 111.437213,25.0132198 111.437213,28.1198967 C111.437213,31.2351345 109.769728,33.2369721 107.253758,33.2369721 C105.952967,33.3045086 104.728275,32.6239123 104.09952,31.4824511 L104.051959,31.4824511 L104.051959,36.4482829 L101.994475,36.4482829 L101.994475,23.1069796 L103.985849,23.1069796 L103.985849,24.7744641 L104.023422,24.7744641 C104.680238,23.6406127 105.906358,22.9595408 107.215709,23.00187 Z M121.989213,19.1524824 C124.894232,19.1524824 126.886082,20.7819182 126.953142,23.1542551 L124.876159,23.1542551 C124.751549,21.7821236 123.617222,20.953613 121.959725,20.953613 C120.302229,20.953613 119.167901,21.7921114 119.167901,23.0115724 C119.167901,23.9837169 119.892254,24.5553987 121.664372,24.9934344 L123.179186,25.3658362 C126.000498,26.0331153 127.172874,27.1664912 127.172874,29.1773653 C127.172874,31.7494579 125.123475,33.3608206 121.864604,33.3608206 C118.815475,33.3608206 116.756565,31.7875066 116.623394,29.300548 L118.729866,29.300548 C118.882061,30.6641186 120.206631,31.55969 122.016798,31.55969 C123.751819,31.55969 124.999341,30.6641186 124.999341,29.4346697 C124.999341,28.3674035 124.246928,27.7281852 122.464822,27.2901495 L120.682716,26.8611503 C118.157708,26.2514198 116.985808,25.0704831 116.985808,23.1542551 C116.985808,20.7819182 119.05328,19.1524824 121.989213,19.1524824 Z M58.198321,22.9835591 C60.5901578,22.9835591 62.1725084,24.2886297 62.1725084,26.2609795 L62.1725084,33.1321004 L60.1996829,33.1321004 L60.1996829,31.4831645 L60.1525977,31.4831645 C59.5090989,32.6217721 58.2962964,33.3194902 56.9883721,33.3037951 C55.3180339,33.4674046 53.8317563,32.2455655 53.6681468,30.5752273 C53.6586347,30.4777275 53.6538786,30.3802276 53.6538786,30.2822522 C53.6538786,28.5296337 54.9965223,27.4709284 57.3797982,27.3282458 L60.1240611,27.1760509 L60.1240611,26.41365 C60.1240611,25.2988229 59.3901967,24.6695924 58.1412479,24.6695924 C57.1838473,24.5421292 56.2816174,25.146628 56.0357276,26.0802482 L54.1109387,26.0802482 C54.1684873,24.2696054 55.8549962,22.9835591 58.198321,22.9835591 Z M72.7769683,26.5565229 L70.8131794,26.5565229 C70.6262652,25.4193421 69.5989501,24.6155632 68.4503547,24.7083069 C66.8684798,24.7083069 65.8207135,26.0328775 65.8207135,28.1198491 C65.8207135,30.2543815 66.8784675,31.5404278 68.4689035,31.5404278 C69.6032306,31.6536227 70.63007,30.8650633 70.8131794,29.7397728 L72.7950414,29.7397728 C72.5386883,31.8957076 70.6119969,33.4547534 68.4503547,33.2564245 C65.59147,33.2564245 63.7242298,31.3026234 63.7242298,28.1198491 C63.7242298,25.0031844 65.59147,22.9837493 68.4308548,22.9837493 C70.6086676,22.7992131 72.5367858,24.3839417 72.7769683,26.5565229 Z M156.040903,22.9836542 C158.814178,22.9836542 160.558711,24.8889432 160.558711,27.9285592 L160.558711,28.6334115 L153.477847,28.6334115 L153.477847,28.758021 C153.35086,30.1943597 154.411943,31.4618573 155.848757,31.5888448 C155.95672,31.5988326 156.06611,31.6016862 156.174549,31.5974058 C157.173328,31.6911007 158.115033,31.1175165 158.490289,30.1872256 L160.44409,30.1872256 C160.167285,32.0073806 158.394691,33.2563294 156.127464,33.2563294 C153.211031,33.2563294 151.400863,31.3025283 151.400863,28.1673149 C151.400863,25.0230649 153.220543,22.9836542 156.040903,22.9836542 Z M139.377424,22.9837969 C142.284346,22.9837969 144.133037,24.9656589 144.133037,28.1198967 C144.133037,31.2826954 142.293858,33.2564721 139.377424,33.2564721 C136.462418,33.2564721 134.623239,31.2826954 134.623239,28.1198967 C134.623239,24.9656589 136.480491,22.9837969 139.377424,22.9837969 Z M131.613538,20.7345 L131.613538,23.1068369 L133.520254,23.1068369 L133.520254,24.7362727 L131.613538,24.7362727 L131.613538,30.2628474 C131.613538,31.1217969 131.995452,31.521784 132.833475,31.521784 C133.059865,31.5179791 133.285779,31.502284 133.510266,31.4742231 L133.510266,33.0936712 C133.133584,33.1645369 132.750719,33.1964027 132.367378,33.1892685 C130.33748,33.1892685 129.546067,32.4268676 129.546067,30.4825787 L129.546067,24.7362727 L128.088801,24.7362727 L128.088801,23.1068369 L129.546067,23.1068369 L129.546067,20.7345 L131.613538,20.7345 Z M40.5675015,19.3815831 L45.0168222,30.2349767 L45.0929196,30.2349767 L49.5336792,19.3815831 L52.01065,19.3815831 L52.01065,33.1319101 L50.0582758,33.1319101 L50.0582758,23.0119054 L49.9912149,23.0119054 L45.8467596,33.0268006 L44.264409,33.0268006 L40.1090146,23.0119054 L40.042905,23.0119054 L40.042905,33.1319101 L38.0986161,33.1319101 L38.0986161,19.3815831 L40.5675015,19.3815831 Z M150.252458,23.00187 C150.489787,23.0009188 150.726165,23.0270773 150.957311,23.078443 L150.957311,25.003232 C150.658153,24.9119151 150.345678,24.8700615 150.033203,24.8795737 C148.888888,24.832964 147.923402,25.7228281 147.877268,26.8666674 C147.872987,26.9732038 147.876792,27.0802158 147.888682,27.1858009 L147.888682,33.1318625 L145.831199,33.1318625 L145.831199,23.1069796 L147.793561,23.1069796 L147.793561,24.8134641 L147.841597,24.8134641 C148.115072,23.7148076 149.12146,22.9585896 150.252458,23.00187 Z M84.7177463,19.3816307 L89.682627,33.1319577 L87.4239606,33.1319577 L86.1669265,29.4150746 L80.9252415,29.4150746 L79.6672561,33.1319577 L77.4471141,33.1319577 L82.4110435,19.3816307 L84.7177463,19.3816307 Z M24.2815246,14.837646 L24.5744886,14.856498 C26.3418511,14.9116686 27.9798479,15.7967767 28.9938459,17.2454812 C27.3934222,18.2290402 26.4089119,19.9645369 26.3846559,21.8427162 C26.3870339,23.968212 27.6597631,25.8858669 29.6168935,26.7139018 C29.2406869,27.9366921 28.6732856,29.0924216 27.9360919,30.1378098 C26.9453987,31.6198069 25.9071446,33.0670846 24.2586844,33.0932431 C22.657785,33.1303406 22.1193958,32.151062 20.2830701,32.151062 C18.4286713,32.151062 17.855087,33.0670846 16.3193461,33.1303406 C14.749837,33.1883649 13.5508271,31.5494168 12.5239876,30.081688 C10.4726867,27.0848767 8.87559227,21.6358263 11.0167832,17.9284555 C12.0226959,16.1216175 13.9027776,14.9749246 15.9697736,14.9078638 C17.540234,14.8755224 18.9994019,15.9684715 19.9653634,15.9684715 C20.9127762,15.9684715 22.7153337,14.6605472 24.5744886,14.856498 Z M60.1240611,28.6052555 L57.6556513,28.7579259 C56.4262025,28.8344989 55.7308623,29.3676564 55.7308623,30.2251792 C55.7308623,31.1022019 56.4552146,31.6743593 57.5600539,31.6743593 C58.8851001,31.7642493 60.0313174,30.7630928 60.1207319,29.4389978 L60.1240611,29.3776442 L60.1240611,29.3776442 L60.1240611,28.6052555 Z M139.377424,24.6793424 C137.70994,24.6793424 136.718295,25.9658643 136.718295,28.1198967 C136.718295,30.2920022 137.70994,31.5594997 139.377424,31.5594997 C141.044909,31.5594997 142.036553,30.2920022 142.036553,28.1198967 C142.036553,25.9563521 141.044909,24.6793424 139.377424,24.6793424 Z M106.673039,24.7559154 C105.100676,24.7559154 104.042922,26.1185347 104.042922,28.1198967 C104.042922,30.1398074 105.100676,31.4924389 106.673039,31.4924389 C108.273463,31.4924389 109.32218,30.1683439 109.32218,28.1198967 C109.32218,26.0899982 108.273463,24.7559154 106.673039,24.7559154 Z M95.6392947,24.7559154 C94.0669319,24.7559154 93.0091778,26.1185347 93.0091778,28.1198967 C93.0091778,30.1398074 94.0669319,31.4924389 95.6392947,31.4924389 C97.2397184,31.4924389 98.2884359,30.1683439 98.2884359,28.1198967 C98.2884359,26.0899982 97.2397184,24.7559154 95.6392947,24.7559154 Z M83.5753339,21.668358 L83.5177853,21.668358 L81.4683868,27.7005048 L85.62283,27.7005048 L83.5753339,21.668358 Z M156.040903,24.6506632 C154.639284,24.6425778 153.496396,25.7721488 153.487835,27.173768 L153.487835,27.195646 L158.499801,27.195646 C158.57352,25.8658437 157.556193,24.728663 156.226866,24.6539924 C156.165037,24.6506632 156.102732,24.6497119 156.040903,24.6506632 Z M82.4018167,8.50279204 L82.4018167,14.3042686 C82.4018167,14.7798774 82.4175118,15.2160107 82.4436703,15.6188514 L81.47866,15.6188514 L81.4277698,14.8340968 L81.3982821,14.8340968 C81.0910388,15.4305103 80.5692959,15.7291927 79.8340046,15.7291927 C79.2447253,15.7291927 78.7567506,15.4985224 78.3691294,15.0371818 C77.9786545,14.5758412 77.7874598,13.9765741 77.7874598,13.2403316 C77.7874598,12.4522478 77.9972033,11.8120783 78.4200195,11.323628 C78.8318968,10.8684704 79.3369934,10.6406537 79.9353093,10.6406537 C80.5968812,10.6406537 81.0558437,10.8608606 81.3188554,11.3036525 L81.3188554,8.50279204 L82.4018167,8.50279204 Z M74.6071586,10.6419379 C75.8836928,10.6419379 76.5248135,11.3139732 76.5248135,12.658995 L76.5248135,14.4548939 C76.5195818,14.942393 76.5457403,15.3300142 76.5918743,15.6172819 L75.618303,15.6172819 L75.539352,15.0555879 L75.5084374,15.0555879 C75.1736088,15.5036114 74.6989512,15.7285744 74.0844645,15.7285744 C73.6207459,15.7285744 73.2511979,15.58066 72.9686862,15.2872094 C72.7147111,15.0203928 72.5901016,14.6874666 72.5901016,14.2941381 C72.5901016,13.6982003 72.8383694,13.2439938 73.3368075,12.9291408 C73.8328675,12.6142877 74.5348661,12.4601905 75.4385229,12.4678002 L75.4385229,12.3760077 C75.4385229,11.734887 75.1017918,11.413851 74.4254761,11.413851 C73.9422575,11.413851 73.5189656,11.5341801 73.1546493,11.7738869 L72.9296863,11.0623761 C73.3853196,10.7812913 73.9422575,10.6419379 74.6071586,10.6419379 Z M88.7335971,10.641605 C89.4508152,10.641605 90.0248751,10.8784582 90.4595816,11.3531158 C90.8752637,11.8139807 91.0840559,12.4103942 91.0840559,13.1395026 C91.0840559,13.8895377 90.8690808,14.5040243 90.4400816,14.9853404 C89.9920581,15.4818761 89.395169,15.728717 88.654646,15.728717 C87.9360011,15.728717 87.3666973,15.4913882 86.9429298,15.0157794 C86.5191624,14.5415974 86.305614,13.9423303 86.305614,13.2194048 C86.305614,12.4636624 86.5239185,11.8444197 86.9624298,11.3631036 C87.4004655,10.8827386 87.9921229,10.641605 88.7335971,10.641605 Z M47.4178858,10.641605 C48.1351039,10.641605 48.7105906,10.8784582 49.1452971,11.3531158 C49.5590768,11.8139807 49.7673934,12.4103942 49.7673934,13.1395026 C49.7673934,13.8895377 49.5533695,14.5040243 49.1234191,14.9853404 C48.6749199,15.4818761 48.0808845,15.728717 47.3379835,15.728717 C46.6221922,15.728717 46.0519372,15.4913882 45.6262673,15.0157794 C45.2020242,14.5415974 44.9903783,13.9423303 44.9903783,13.2194048 C44.9903783,12.4636624 45.2082071,11.8444197 45.6476697,11.3631036 C46.0861811,10.8827386 46.6754604,10.641605 47.4178858,10.641605 Z M69.2963202,10.641605 C70.0125871,10.641605 70.5866469,10.8784582 71.0208778,11.3531158 C71.4365599,11.8139807 71.6439254,12.4103942 71.6439254,13.1395026 C71.6439254,13.8895377 71.4308526,14.5040243 71.0018534,14.9853404 C70.5519275,15.4818761 69.9588433,15.728717 69.2159423,15.728717 C68.5006266,15.728717 67.929896,15.4913882 67.5027993,15.0157794 C67.0790318,14.5415974 66.8654834,13.9423303 66.8654834,13.2194048 C66.8654834,12.4636624 67.0847391,11.8444197 67.5242017,11.3631036 C67.9617618,10.8827386 68.5510411,10.641605 69.2963202,10.641605 Z M102.092688,9.52644493 L102.092688,10.7397231 L103.285515,10.7397231 L103.287418,11.5530142 L102.092688,11.5530142 L102.092688,13.9224974 C102.092688,14.5246182 102.303383,14.8247273 102.723821,14.8247273 C102.919296,14.8247273 103.07815,14.8095079 103.20704,14.7747884 L103.237003,15.5980673 C103.021552,15.6784452 102.74237,15.7188719 102.394224,15.7188719 C101.966652,15.7188719 101.629921,15.5880795 101.389738,15.3279215 C101.148129,15.0663366 101.0278,14.6283009 101.0278,14.0119118 L101.0278,11.5530142 L100.316289,11.5530142 L100.316289,10.7411499 L101.0278,10.7411499 L101.0278,9.84748089 L102.092688,9.52644493 Z M112.286222,10.6325684 C112.987745,10.6325684 113.521378,10.8936776 113.880463,11.4139937 C114.172011,11.8272978 114.316596,12.3414309 114.316596,12.9487834 C114.316596,13.1433074 114.301377,13.3064413 114.276169,13.4396117 L111.023481,13.4396117 C111.040127,13.9228303 111.192797,14.2890491 111.494809,14.5434998 C111.769711,14.7722677 112.123088,14.8859382 112.55827,14.8859382 C113.041013,14.8859382 113.479049,14.8093652 113.871902,14.6547923 L114.043121,15.4086323 C113.581305,15.6088636 113.035306,15.7087415 112.4056,15.7087415 C111.65176,15.7087415 111.056773,15.4861565 110.627299,15.0419379 C110.194494,14.596768 109.979519,14.0008302 109.979519,13.250795 C109.979519,12.5169306 110.178799,11.902444 110.582116,11.4139937 C111.000651,10.8936776 111.568528,10.6325684 112.286222,10.6325684 Z M40.3242752,8.80366219 C41.5085412,8.80366219 42.4026858,9.06049096 43.0029041,9.57367289 C43.677793,10.1562937 44.0159509,10.9881336 44.0159509,12.0706193 C44.0159509,13.2848486 43.6506833,14.2008712 42.9220506,14.8163091 C42.2452592,15.3837104 41.2854806,15.6681245 40.0427147,15.6681245 C39.4263257,15.6681245 38.8988755,15.6405392 38.4560837,15.587271 L38.4560837,8.94301558 C39.0325216,8.85074746 39.6531911,8.80366219 40.3242752,8.80366219 Z M105.55298,8.50383838 L105.55298,11.4335888 L105.575334,11.4335888 C105.916821,10.9051874 106.406698,10.6421757 107.040209,10.6421757 C107.489659,10.6421757 107.860159,10.7881876 108.155036,11.0825895 C108.522206,11.4511863 108.707694,11.9971853 108.707694,12.7182083 L108.707694,15.6184709 L107.621879,15.6184709 L107.621879,12.8375861 C107.621879,11.9615146 107.29466,11.5230033 106.639271,11.5230033 C106.137028,11.5230033 105.792687,11.7769784 105.60387,12.2863554 C105.57248,12.3933674 105.55298,12.522733 105.55298,12.6763547 L105.55298,15.6170441 L104.469543,15.6170441 L104.469543,8.50383838 L105.55298,8.50383838 Z M94.916179,10.6383708 C95.3713367,10.6383708 95.7499213,10.7867608 96.0495549,11.0816383 C96.426237,11.4421498 96.6112489,11.9810146 96.6112489,12.6963302 L96.6112489,15.6184709 L95.5282876,15.6184709 L95.5282876,12.8176105 C95.5282876,11.9539049 95.2010687,11.5230033 94.5442529,11.5230033 C94.2232169,11.5230033 93.9635345,11.6419055 93.7628276,11.8797099 C93.5606938,12.1165631 93.4622428,12.3966967 93.4622428,12.7167814 L93.4622428,15.6170441 L92.3764278,15.6170441 L92.3764278,12.1351118 C92.3764278,11.7046858 92.3650132,11.2419184 92.3383791,10.7382487 L93.2895968,10.7382487 L93.3400113,11.4911375 L93.3699747,11.4911375 C93.4988647,11.2580891 93.6867302,11.0649919 93.9311931,10.9113703 C94.2284486,10.7301633 94.5542407,10.6383708 94.916179,10.6383708 Z M61.2064042,10.6383708 C61.6629886,10.6383708 62.0415733,10.7867608 62.3412068,11.0816383 C62.7159866,11.4421498 62.9043277,11.9810146 62.9043277,12.6963302 L62.9043277,15.6184709 L61.8180371,15.6184709 L61.8180371,12.8176105 C61.8180371,11.9539049 61.4927207,11.5230033 60.8359049,11.5230033 C60.5139177,11.5230033 60.2556621,11.6419055 60.0530527,11.8797099 C59.8513946,12.1165631 59.752468,12.3966967 59.752468,12.7167814 L59.752468,15.6170441 L58.6680798,15.6170441 L58.6680798,12.1351118 C58.6680798,11.7046858 58.6542872,11.2419184 58.6286043,10.7382487 L59.5817244,10.7382487 L59.6316633,11.4911375 L59.6621023,11.4911375 C59.7886142,11.2580891 59.9764797,11.0649919 60.2237963,10.9113703 C60.5181982,10.7301633 60.8458927,10.6383708 61.2064042,10.6383708 Z M65.5702103,8.50421887 L65.5702103,15.6183758 L64.487249,15.6183758 L64.487249,8.50421887 L65.5702103,8.50421887 Z M51.6321605,10.7406743 L52.1833912,13.0602186 C52.3179885,13.6071687 52.4273785,14.1298628 52.5153661,14.624496 L52.5348661,14.624496 C52.6157196,14.2164236 52.7488901,13.6984856 52.9372312,13.0697307 L53.6287664,10.7421011 L54.511972,10.7421011 L55.1768732,13.0193162 C55.3371534,13.5757785 55.466519,14.1108385 55.567348,14.6259228 L55.5973114,14.6259228 C55.6705551,14.1246311 55.781372,13.5881444 55.9283351,13.0193162 L56.5195169,10.7421011 L57.583,10.741792 L56.058652,15.6175673 L55.0655807,15.6175673 L54.4334966,13.4996811 C54.2717896,12.9708041 54.1428996,12.4462076 54.0411193,11.9249403 L54.0211437,11.9249403 C53.9279244,12.4609514 53.7971319,12.9850724 53.6287664,13.4996811 L52.9572067,15.6175673 L51.9531965,15.6175673 L50.517809,10.7406743 L51.6321605,10.7406743 Z M75.4680106,13.1892988 C74.2694764,13.1688476 73.6716361,13.4965421 73.6716361,14.1738091 C73.6716361,14.4277842 73.7420262,14.6170765 73.880904,14.7454909 C74.0212086,14.8720029 74.1976594,14.9347832 74.4083542,14.9347832 C74.6499634,14.9347832 74.8701703,14.8610639 75.0737309,14.7093446 C75.2777671,14.5590522 75.401901,14.3678575 75.4499375,14.1324311 L75.4680106,13.9421876 L75.4680106,13.1892988 Z M47.3793615,11.4349205 C46.9441794,11.4349205 46.6112532,11.6275421 46.3848634,12.0137364 C46.190815,12.3347724 46.094742,12.7252473 46.094742,13.185161 C46.094742,13.6336601 46.190815,14.0160496 46.3848634,14.33661 C46.6193386,14.7218531 46.947033,14.9168528 47.3693737,14.9168528 C47.7831534,14.9168528 48.1075186,14.7199507 48.3400913,14.3270978 C48.5431763,13.9984521 48.6421029,13.6113065 48.6421029,13.1647098 C48.6421029,12.7185887 48.5446031,12.3347724 48.3524571,12.0137364 C48.1232137,11.6275421 47.7997997,11.4349205 47.3793615,11.4349205 Z M69.2558934,11.4349205 C68.8207113,11.4349205 68.4920656,11.6275421 68.261871,12.0137364 C68.0682982,12.3347724 67.9731764,12.7252473 67.9731764,13.185161 C67.9731764,13.6336601 68.0682982,14.0160496 68.261871,14.33661 C68.4977729,14.7218531 68.823565,14.9168528 69.2459056,14.9168528 C69.6596853,14.9168528 69.9850018,14.7199507 70.2180501,14.3270978 C70.4201838,13.9984521 70.5214885,13.6113065 70.5214885,13.1647098 C70.5214885,12.7185887 70.4230375,12.3347724 70.2299403,12.0137364 C70.0021237,11.6275421 69.6787097,11.4349205 69.2558934,11.4349205 Z M88.6969752,11.4349205 C88.2608419,11.4349205 87.9302938,11.6275421 87.7034284,12.0137364 C87.5103312,12.3347724 87.413307,12.7252473 87.413307,13.185161 C87.413307,13.6336601 87.5103312,14.0160496 87.7034284,14.33661 C87.9393303,14.7218531 88.2646468,14.9168528 88.6869874,14.9168528 C89.0993403,14.9168528 89.4237055,14.7199507 89.6562782,14.3270978 C89.858412,13.9984521 89.9597167,13.6113065 89.9597167,13.1647098 C89.9597167,12.7185887 89.8612656,12.3347724 89.6681685,12.0137364 C89.4408274,11.6275421 89.1169378,11.4349205 88.6969752,11.4349205 Z M80.1707357,11.482957 C79.7659925,11.482957 79.4520907,11.6441884 79.2190424,11.9661756 C78.9864697,12.2876871 78.8708967,12.6990888 78.8708967,13.2003805 C78.8708967,13.6821722 78.9802867,14.0726471 79.2014449,14.3741831 C79.4382981,14.6952191 79.7526755,14.8559748 80.1493333,14.8559748 C80.5046131,14.8559748 80.792832,14.7218531 81.0040023,14.4550366 C81.2142214,14.2058176 81.3188554,13.9080864 81.3188554,13.560892 L81.3188554,12.7480765 C81.3188554,12.6068207 81.3093432,12.4931502 81.2903189,12.407065 C81.2284897,12.1459557 81.0967461,11.9271756 80.8941367,11.7488223 C80.694381,11.5718958 80.4527717,11.482957 80.1707357,11.482957 Z M40.413214,9.65690444 C40.0712513,9.65690444 39.7811299,9.68020927 39.5395206,9.72777015 L39.5395206,14.7758823 C39.6736423,14.7977603 39.9176296,14.8058457 40.2729094,14.8058457 C41.10142,14.8058457 41.7425407,14.5751754 42.1938935,14.1143104 C42.6447707,13.6553479 42.8716361,12.9814102 42.8716361,12.1020094 C42.8716361,11.3129744 42.663795,10.7089512 42.2452592,10.2889886 C41.8271991,9.86855037 41.2165173,9.65690444 40.413214,9.65690444 Z M24.594274,9.0198264 C24.701286,10.4195432 24.2584941,11.8064186 23.360069,12.8850994 C22.4882781,13.9694875 21.1675123,14.5939619 19.7758809,14.5796937 C19.6874176,13.219928 20.1430509,11.8810891 21.0424272,10.8575789 C21.9532181,9.82075168 23.2211913,9.16441149 24.594274,9.0198264 Z M112.208698,11.3840304 C111.854845,11.3840304 111.56615,11.5300423 111.345943,11.8249197 C111.166639,12.0603461 111.059627,12.3414309 111.023481,12.6686498 L113.282623,12.6686498 C113.291184,12.346187 113.21794,12.0693827 113.071928,11.8349075 C112.88216,11.5347984 112.598222,11.3840304 112.208698,11.3840304 Z" id="Combined-Shape" fill="#B3B3B3"></path>
                    </g>
                </g>
            </g>
        </g>
    </g>
</svg>