<?xml version="1.0" encoding="UTF-8"?>
<svg width="142px" height="44px" viewBox="0 0 142 44" version="1.1" xmlns="http://www.w3.org/2000/svg" xmlns:xlink="http://www.w3.org/1999/xlink">
    <title>84AD3F80-2D8F-4101-B18C-F6F84EC5A39F</title>
    <g id="Design" stroke="none" stroke-width="1" fill="none" fill-rule="evenodd">
        <g id="Onboarding_dark" transform="translate(-723.000000, -3794.000000)">
            <g id="Components//Footer/web/dark" transform="translate(0.000000, 3634.000000)">
                <g id="Apps" transform="translate(723.000000, 122.000000)">
                    <g id="Group" transform="translate(0.000000, 37.999552)">
                        <path d="M9.5052262,0 C4.25548977,0 0,4.25864753 0,9.51227949 L0,34.4877205 C0,39.7413525 4.25548977,44 9.5052262,44 L132.494774,44 C137.744035,44 142,39.7413525 142,34.4877205 L142,9.51227949 C142,4.25864753 137.744035,0 132.494774,0 L9.5052262,0 Z" id="Fill-1" fill="#333333"></path>
                        <path d="M63.0532049,23.926522 C64.255557,23.926522 65.2624318,24.4030872 66.0666951,25.3552663 C66.8719095,26.309348 67.2742789,27.5616396 67.2742789,29.1140436 C67.2742789,30.8509858 66.8057992,32.2226565 65.8669372,33.2314338 C65.0270029,34.1274905 63.9830302,34.5750432 62.7383485,34.5750432 C61.3937878,34.5750432 60.4268646,34.0903926 59.8390057,33.1258475 L59.7990541,33.1258475 L59.7990541,38.5021878 L57.528473,38.5021878 L57.528473,27.4969561 C57.528473,26.405422 57.501363,25.2863023 57.4452406,24.1362677 L59.4399656,24.1362677 L59.5660033,25.7543065 L59.6092841,25.7543065 C60.3645591,24.5353079 61.5141181,23.926522 63.0532049,23.926522 Z M74.7939737,23.926522 C75.9968014,23.926522 77.0022494,24.4030872 77.8079394,25.3552663 C78.6131539,26.309348 79.0140965,27.5616396 79.0140965,29.1140436 C79.0140965,30.8509858 78.5460923,32.2226565 77.6067547,33.2314338 C76.7663448,34.1274905 75.7242746,34.5750432 74.4772148,34.5750432 C73.1336053,34.5750432 72.1685845,34.0903926 71.5802501,33.1258475 L71.538396,33.1258475 L71.538396,38.5021878 L69.270193,38.5021878 L69.270193,27.4969561 C69.270193,26.405422 69.2411805,25.2863023 69.1864849,24.1362677 L71.1807343,24.1362677 L71.3077233,25.7543065 L71.3510041,25.7543065 C72.1043767,24.5353079 73.2520332,23.926522 74.7939737,23.926522 Z M23.2511165,15.2463291 C24.3183943,15.2463291 26.3540221,13.7681209 28.452431,13.9883302 C29.3304144,14.0140133 31.830717,14.3341015 33.4416216,16.6864882 C33.3117789,16.7640133 30.4642781,18.4372233 30.4961442,21.8754367 C30.5318153,25.9985342 34.1012981,27.3602171 34.1450546,27.3749611 C34.123652,27.4715107 33.5866838,29.3411493 32.245928,31.2398002 C31.1282352,32.9125346 29.9577492,34.5467442 28.0971473,34.5771835 C26.2898142,34.6185619 25.6819796,33.5141863 23.607827,33.5141863 C21.5141743,33.5141863 20.8673393,34.5467442 19.134202,34.6185619 C17.3620643,34.6846723 16.0084669,32.8340583 14.8489201,31.1779704 C12.5331556,27.7925502 10.7310543,21.6423859 13.1476489,17.4565073 C14.3181349,15.4051842 16.4555441,14.0829773 18.7389668,14.0463551 C20.5106288,14.010684 22.1610093,15.2463291 23.2511165,15.2463291 Z M106.004333,23.9267122 C107.501566,23.9267122 108.707248,24.4242044 109.617573,25.417762 C110.486995,26.3861121 110.919804,27.6303182 110.919804,29.1565635 C110.919804,30.725614 110.472727,32.013101 109.576194,33.0218782 C108.636381,34.0587167 107.389321,34.5747579 105.837869,34.5747579 C104.337306,34.5747579 103.146369,34.0777413 102.25602,33.0837081 C101.366622,32.0901505 100.922398,30.836432 100.922398,29.325882 C100.922398,27.7416119 101.379939,26.4469907 102.297874,25.4401159 C103.213431,24.4299118 104.449551,23.9267122 106.004333,23.9267122 Z M88.3832162,19.9773565 C89.6716544,19.9773565 90.7427371,20.2027975 91.5955129,20.6498746 L91.0295323,22.4981105 C90.2309765,22.0653018 89.3287367,21.8474706 88.3185327,21.8474706 C87.5199768,21.8474706 86.8983493,22.0429479 86.4507966,22.4358051 C86.0745859,22.7853814 85.884816,23.2134339 85.884816,23.7171091 C85.884816,24.2764312 86.0997935,24.7396792 86.5345046,25.102097 C86.9107153,25.4383561 87.5975019,25.8026764 88.5924863,26.1955336 C89.8110093,26.6858916 90.7051636,27.259482 91.2811321,27.9167805 C91.8547226,28.5759815 92.1419934,29.3949888 92.1419934,30.3742779 C92.1419934,31.5785325 91.7253556,32.5578217 90.8835188,33.3149991 C89.9617789,34.1420918 88.6776212,34.5534979 87.0291432,34.5534979 C85.5067028,34.5534979 84.2838993,34.2605197 83.3583545,33.6726608 L83.8848592,31.7825709 C84.8812705,32.3851738 85.9732802,32.684335 87.1642175,32.684335 C88.0188959,32.684335 88.6838042,32.492187 89.1613206,32.1078909 C89.636459,31.7212167 89.8737904,31.2051755 89.8737904,30.5607186 C89.8737904,29.9866525 89.6778374,29.5010507 89.2868827,29.1096204 C88.8954524,28.715812 88.2414832,28.3514917 87.3311581,28.014757 C84.8527336,27.088261 83.6151861,25.7351392 83.6151861,23.9544405 C83.6151861,22.7901375 84.0475192,21.8360559 84.9174171,21.0940981 C85.7844614,20.3502378 86.9397278,19.9773565 88.3832162,19.9773565 Z M97.1410292,21.5939208 L97.1410292,24.1351263 L99.6403806,24.1351263 L99.6403806,25.8373487 L97.1410292,25.8373487 L97.1410292,30.7946731 C97.1410292,32.0545745 97.5814477,32.6842874 98.4651385,32.6842874 C98.8689348,32.6842874 99.2056695,32.6495676 99.4720133,32.5806036 L99.5338431,34.3023262 C99.0886684,34.4702179 98.4989071,34.5534504 97.7707421,34.5534504 C96.8746854,34.5534504 96.174106,34.2813992 95.6704308,33.7363456 C95.1672312,33.1898651 94.9142046,32.2709789 94.9142046,30.9839675 L94.9142046,25.8373487 L93.4231548,25.8373487 L93.4231548,24.1351263 L94.9142046,24.1351263 L94.9142046,22.2673902 L97.1410292,21.5939208 Z M124.192097,23.9060706 C125.66222,23.9060706 126.77801,24.4511242 127.534712,25.5426582 C128.134461,26.411605 128.434098,27.4826877 128.434098,28.7568575 C128.434098,29.1644587 128.406513,29.5059495 128.352293,29.7860861 L121.548635,29.7860861 C121.574318,30.7943878 121.904394,31.5658336 122.534582,32.0985213 C123.107222,32.5746109 123.850606,32.8100398 124.761407,32.8100398 C125.766379,32.8100398 126.685266,32.6497579 127.511883,32.3272916 L127.868118,33.9034763 C126.903097,34.3234434 125.762099,34.5350917 124.443697,34.5350917 C122.863232,34.5350917 121.619026,34.0680387 120.71631,33.136311 C119.815497,32.2064856 119.362237,30.9546697 119.362237,29.3875216 C119.362237,27.8479592 119.781253,26.5657039 120.623566,25.5426582 C121.503927,24.4511242 122.694389,23.9060706 124.192097,23.9060706 Z M50.9752734,20.1882912 L55.5535335,34.3454168 L53.1388414,34.3454168 L51.8152077,30.185697 L47.2174474,30.185697 L45.9556435,34.3454168 L43.6037324,34.3454168 L48.162968,20.1882912 L50.9752734,20.1882912 Z M117.725507,23.9264268 C117.93335,23.9264268 118.124071,23.9411709 118.291012,23.966854 L118.291012,26.1308976 C118.066522,26.090946 117.829191,26.0685922 117.577591,26.0685922 C116.780938,26.0685922 116.161688,26.3715583 115.727453,26.97321 C115.350766,27.505422 115.161472,28.1769889 115.161472,28.9879108 L115.161472,34.3442753 L112.894696,34.3442753 L112.91372,27.3508475 C112.91372,26.1746541 112.885183,25.1035714 112.830963,24.1366482 L114.805713,24.1366482 L114.889421,26.090946 L114.950299,26.090946 C115.189058,25.4193791 115.568598,24.8790816 116.085114,24.4738585 C116.588314,24.1095382 117.136697,23.9264268 117.725507,23.9264268 Z M105.921101,25.5856538 C105.008873,25.5856538 104.315904,25.9932549 103.841241,26.8075061 C103.434591,27.4824023 103.234358,28.303312 103.234358,29.2735645 C103.234358,30.214329 103.434591,31.0209703 103.841241,31.6944396 C104.330648,32.5086908 105.016959,32.9153407 105.901601,32.9153407 C106.767694,32.9153407 107.447346,32.5020322 107.936277,31.6735126 C108.35672,30.9852992 108.566466,30.1710481 108.566466,29.229808 C108.566466,28.288568 108.363854,27.4824023 107.956729,26.8075061 C107.483017,25.9932549 106.802889,25.5856538 105.921101,25.5856538 Z M62.3188569,25.731477 C61.7576325,25.731477 61.2482499,25.9188689 60.795941,26.288421 C60.3403028,26.6617779 60.0420929,27.1469042 59.902738,27.7499827 C59.8323471,28.0305949 59.7990541,28.2598409 59.7990541,28.4410498 L59.7990541,30.1437478 C59.7990541,30.8861813 60.0249707,31.5125649 60.4782309,32.022423 C60.9352959,32.5360861 61.5264841,32.7891128 62.2546491,32.7891128 C63.1093274,32.7891128 63.7747113,32.4618903 64.2488985,31.803165 C64.7268905,31.143964 64.9642219,30.2769198 64.9642219,29.1977516 C64.9642219,28.2037184 64.7392565,27.3847112 64.2921793,26.7402542 C63.8018213,26.0686873 63.143096,25.731477 62.3188569,25.731477 Z M74.0586745,25.731477 C73.49745,25.731477 72.9894943,25.9188689 72.5352829,26.288421 C72.080596,26.6617779 71.7833372,27.1469042 71.6439823,27.7499827 C71.5721646,28.0305949 71.538396,28.2598409 71.538396,28.4410498 L71.538396,30.1437478 C71.538396,30.8861813 71.7643127,31.5125649 72.2194752,32.022423 C72.6751134,32.5360861 73.265826,32.7891128 73.9963691,32.7891128 C74.8491449,32.7891128 75.5159557,32.4618903 75.9906184,31.803165 C76.4648056,31.143964 76.7054663,30.2769198 76.7054663,29.1977516 C76.7054663,28.2037184 76.4809765,27.3847112 76.0319969,26.7402542 C75.5416389,26.0686873 74.8843403,25.731477 74.0586745,25.731477 Z M49.5065775,22.0783812 L49.4647234,22.0783812 C49.3244173,22.6814597 49.0994519,23.569431 48.791254,24.7446731 L47.6150607,28.4411449 L51.4171188,28.4411449 L50.2214253,24.7446731 C50.0934851,24.3679869 49.8561537,23.4776375 49.5065775,22.0783812 Z M124.023254,25.4803528 C123.283199,25.4803528 122.68012,25.7895019 122.218775,26.405422 C121.840662,26.89578 121.615696,27.4826877 121.548635,28.168523 L126.271481,28.168523 C126.287177,27.4983829 126.140212,26.9162314 125.832014,26.4258734 C125.439157,25.7961605 124.834652,25.4803528 124.023254,25.4803528 Z M74.3000486,10.4860515 C75.3834972,10.4860515 75.9280752,11.0572639 75.9280752,12.1987375 L75.9280752,13.7240315 C75.9233191,14.13734 75.9456729,14.4674161 75.9851489,14.7114061 L75.1585318,14.7114061 L75.0914702,14.2338897 L75.0648358,14.2338897 C74.7808943,14.6148565 74.3775737,14.8055777 73.8558251,14.8055777 C73.4624924,14.8055777 73.1481115,14.6800156 72.9084021,14.4307938 C72.692949,14.203926 72.586887,13.9218869 72.586887,13.5880059 C72.586887,13.081477 72.7980596,12.6962297 73.2208805,12.428459 C73.6422744,12.1616396 74.2382188,12.0303701 75.0058597,12.0365531 L75.0058597,11.959028 C75.0058597,11.4149256 74.7200157,11.1414476 74.145474,11.1414476 C73.7350192,11.1414476 73.3759306,11.2437046 73.0658303,11.447743 L72.8755847,10.8432376 C73.2622589,10.604955 73.7350192,10.4860515 74.3000486,10.4860515 Z M80.9183597,8.67034763 L80.9183597,13.5962816 C80.9183597,14.0000778 80.9312013,14.3705811 80.9540308,14.7125476 L80.1340723,14.7125476 L80.091267,14.0457368 L80.0660595,14.0457368 C79.805423,14.5522657 79.3616752,14.8057679 78.7376696,14.8057679 C78.2373237,14.8057679 77.8235396,14.6102906 77.4934635,14.2183846 C77.1624362,13.8269543 77.0002518,13.3180474 77.0002518,12.6930906 C77.0002518,12.0239018 77.1776558,11.480275 77.53722,11.0655396 C77.8872719,10.6783898 78.3158,10.4857662 78.8232802,10.4857662 C79.3859315,10.4857662 79.7754593,10.6726825 79.9985223,11.0484175 L79.9985223,8.67034763 L80.9183597,8.67034763 Z M51.2125097,10.4862418 C51.8217712,10.4862418 52.3102267,10.6874265 52.6797788,11.0902715 C53.0312575,11.4817018 53.2081859,11.9882307 53.2081859,12.6070045 C53.2081859,13.2438516 53.0265014,13.7660758 52.6612298,14.1746282 C52.2807386,14.5960221 51.7761122,14.8057679 51.1449725,14.8057679 C50.5376134,14.8057679 50.0529628,14.6041076 49.6919718,14.2003113 C49.3314564,13.7974663 49.1516743,13.2890349 49.1516743,12.6750173 C49.1516743,12.033414 49.3366881,11.507385 49.7095695,11.0988326 C50.0824509,10.6912314 50.5823211,10.4862418 51.2125097,10.4862418 Z M86.294605,10.4862418 C86.9033908,10.4862418 87.3908952,10.6874265 87.7599716,11.0902715 C88.1128772,11.4817018 88.2902812,11.9882307 88.2902812,12.6070045 C88.2902812,13.2438516 88.1076454,13.7660758 87.7433251,14.1746282 C87.3633096,14.5960221 86.8563051,14.8057679 86.2275434,14.8057679 C85.6173307,14.8057679 85.1336312,14.6041076 84.7740671,14.2003113 C84.4135517,13.7974663 84.233294,13.2890349 84.233294,12.6750173 C84.233294,12.033414 84.4183078,11.507385 84.790238,11.0988326 C85.1626437,10.6912314 85.6648921,10.4862418 86.294605,10.4862418 Z M69.7902769,10.4862418 C70.3981115,10.4862418 70.8856159,10.6874265 71.2546923,11.0902715 C71.6075979,11.4817018 71.7840507,11.9882307 71.7840507,12.6070045 C71.7840507,13.2438516 71.6023661,13.7660758 71.2380458,14.1746282 C70.8566034,14.5960221 70.3529282,14.8057679 69.7222641,14.8057679 C69.114905,14.8057679 68.6297788,14.6041076 68.2673609,14.2003113 C67.9073211,13.7974663 67.7265878,13.2890349 67.7265878,12.6750173 C67.7265878,12.033414 67.9125529,11.507385 68.2854343,11.0988326 C68.6573644,10.6912314 69.1572347,10.4862418 69.7902769,10.4862418 Z M97.6379507,9.53929436 L97.6379507,10.5694742 L98.6505328,10.5694742 L98.6519597,11.2600657 L97.6379507,11.2600657 L97.6379507,13.2719128 C97.6379507,13.7831979 97.8167815,14.0381269 98.173492,14.0381269 C98.3394813,14.0381269 98.4740801,14.0248098 98.5834713,13.9957973 L98.6091544,14.6949498 C98.4265187,14.7629626 98.1891873,14.7972068 97.893831,14.7972068 C97.5309375,14.7972068 97.2446179,14.6863888 97.0410551,14.4652283 C96.8355899,14.242641 96.7338085,13.8711864 96.7338085,13.3480111 L96.7338085,11.2600657 L96.1293032,11.2600657 L96.1293032,10.5709011 L96.7338085,10.5709011 L96.7338085,9.81182117 L97.6379507,9.53929436 Z M106.293554,10.4782515 C106.889023,10.4782515 107.341807,10.7003632 107.646676,11.1422086 C107.894471,11.4932117 108.017179,11.9293497 108.017179,12.4449153 C108.017179,12.6109045 108.003862,12.7488326 107.98246,12.8620287 L105.221045,12.8620287 C105.234838,13.272008 105.365156,13.5835351 105.621512,13.7994639 C105.854563,13.9935144 106.154675,14.090064 106.524227,14.090064 C106.934206,14.090064 107.306136,14.0249049 107.640017,13.8936354 L107.784604,14.5342874 C107.392698,14.703606 106.929926,14.7887409 106.39486,14.7887409 C105.754684,14.7887409 105.249582,14.5999222 104.884786,14.2227603 C104.51666,13.8441716 104.3345,13.3381183 104.3345,12.7012712 C104.3345,12.0786925 104.503343,11.556944 104.846737,11.1422086 C105.201545,10.7003632 105.683817,10.4782515 106.293554,10.4782515 Z M45.189905,8.92551453 C46.195353,8.92551453 46.9544329,9.14382134 47.4642911,9.57900813 C48.0374059,10.0736467 48.3246767,10.7808846 48.3246767,11.6992952 C48.3246767,12.7309019 48.0145764,13.5085308 47.3958026,14.0312305 C46.8207853,14.5125519 46.0060586,14.7541638 44.9506712,14.7541638 C44.4274958,14.7541638 43.9794675,14.7308587 43.6037324,14.6856754 L43.6037324,9.04394241 C44.0931392,8.9654661 44.6201195,8.92551453 45.189905,8.92551453 Z M62.9206513,10.483293 C63.3082767,10.483293 63.6302674,10.6093307 63.8847208,10.8595036 C64.2029066,11.165799 64.3627129,11.6233397 64.3627129,12.2311743 L64.3627129,14.7119768 L63.4404974,14.7119768 L63.4404974,12.333907 C63.4404974,11.6005102 63.16369,11.2342874 62.6067461,11.2342874 C62.3327924,11.2342874 62.1135344,11.3355932 61.9413621,11.5372535 C61.7706167,11.7384383 61.686433,11.9762452 61.686433,12.2482964 L61.686433,14.7110256 L60.7656444,14.7110256 L60.7656444,11.7541335 C60.7656444,11.3893376 60.7542297,10.9960048 60.7318758,10.5684279 L61.5408952,10.5684279 L61.584176,11.2076531 L61.6098592,11.2076531 C61.717348,11.0097976 61.876203,10.8452352 62.0869,10.7153926 C62.3365973,10.5608181 62.6148315,10.483293 62.9206513,10.483293 Z M54.7918853,10.5703303 L55.2594138,12.5398478 C55.3740368,13.0045227 55.4667815,13.4482705 55.5409773,13.8682376 L55.5576238,13.8682376 C55.6265878,13.521515 55.7393083,13.0815721 55.8995903,12.5479332 L56.4869735,10.5712816 L57.2370168,10.5712816 L57.8006193,12.505128 C57.9371205,12.9778883 58.0469874,13.4320996 58.1325979,13.8696645 L58.158281,13.8696645 C58.2205865,13.4435144 58.3142824,12.9883518 58.4388933,12.505128 L58.9411416,10.5712816 L59.8457594,10.5712816 L59.8457594,10.5703303 L58.5497113,14.7115012 L57.7069234,14.7115012 L57.1699552,12.9127292 C57.0329784,12.4637496 56.9231115,12.0185749 56.8370254,11.5757783 L56.8199033,11.5757783 C56.7409514,12.0309409 56.6296577,12.4761155 56.4869735,12.9127292 L55.9162367,14.7115012 L55.0639365,14.7115012 L53.8449379,10.5703303 L54.7918853,10.5703303 Z M66.6263976,8.6714891 L66.6263976,14.7117866 L65.7065602,14.7117866 L65.7065602,8.6714891 L66.6263976,8.6714891 Z M91.544432,10.483293 C91.9301549,10.483293 92.2521456,10.6093307 92.5065991,10.8595036 C92.8262117,11.165799 92.9836399,11.6233397 92.9836399,12.2311743 L92.9836399,14.7119768 L92.0638025,14.7119768 L92.0638025,12.333907 C92.0638025,11.6005102 91.7860439,11.2342874 91.2286243,11.2342874 C90.9551463,11.2342874 90.734937,11.3355932 90.5646672,11.5372535 C90.3934462,11.7384383 90.3097381,11.9762452 90.3097381,12.2482964 L90.3097381,14.7110256 L89.387047,14.7110256 L89.387047,11.7541335 C89.387047,11.3893376 89.3780104,10.9960048 89.3551809,10.5684279 L90.1627734,10.5684279 L90.2060543,11.2076531 L90.2312618,11.2076531 C90.340653,11.0097976 90.4999837,10.8452352 90.707827,10.7153926 C90.960378,10.5608181 91.2367098,10.483293 91.544432,10.483293 Z M100.576199,8.67120374 L100.576199,11.1586648 L100.594748,11.1586648 C100.884872,10.7096852 101.301034,10.4866223 101.838478,10.4866223 C102.220396,10.4866223 102.534777,10.6107575 102.785426,10.8604549 C103.097428,11.1738845 103.254381,11.6371325 103.254381,12.2492477 L103.254381,14.7119768 L102.332641,14.7119768 L102.332641,12.3510291 C102.332641,11.6071688 102.055358,11.2342874 101.49889,11.2342874 C101.071788,11.2342874 100.779761,11.4502162 100.619004,11.8830249 C100.59237,11.9733916 100.576199,12.083734 100.576199,12.2140522 L100.576199,14.7110256 L99.6563613,14.7110256 L99.6563613,8.67120374 L100.576199,8.67120374 Z M75.0305916,12.6491439 C74.0127777,12.6320218 73.5052976,12.910256 73.5052976,13.4852733 C73.5052976,13.7007264 73.565225,13.8614839 73.6831773,13.9713507 C73.8020807,14.0783639 73.9518991,14.131157 74.13073,14.131157 C74.3361952,14.131157 74.5231115,14.0688516 74.6957594,13.9404358 C74.8688829,13.8124957 74.9744692,13.6498357 75.015372,13.4505534 L75.0305916,13.2888447 L75.0305916,12.6491439 Z M86.2632144,11.1601868 C85.8927111,11.1601868 85.6125745,11.3233224 85.4194752,11.6510204 C85.2553884,11.9240228 85.1731072,12.2560014 85.1731072,12.6455292 C85.1731072,13.0269716 85.2553884,13.3513404 85.4194752,13.6233916 C85.6201843,13.9510896 85.8965161,14.1161276 86.255129,14.1161276 C86.6051809,14.1161276 86.8805614,13.9487115 87.0779412,13.6157817 C87.2496378,13.3361207 87.3357239,13.0079471 87.3357239,12.6284071 C87.3357239,12.2493428 87.2520159,11.9240228 87.0879291,11.6510204 C86.8948298,11.3233224 86.6199249,11.1601868 86.2632144,11.1601868 Z M51.1801679,11.1601868 C50.8110915,11.1601868 50.5285768,11.3233224 50.3364287,11.6510204 C50.1709151,11.9240228 50.0891095,12.2560014 50.0891095,12.6455292 C50.0891095,13.0269716 50.1709151,13.3513404 50.3364287,13.6233916 C50.5352354,13.9510896 50.8134695,14.1161276 51.1720825,14.1161276 C51.5235612,14.1161276 51.7984661,13.9487115 51.9963215,13.6157817 C52.1684938,13.3361207 52.2526774,13.0079471 52.2526774,12.6284071 C52.2526774,12.2493428 52.169445,11.9240228 52.0063094,11.6510204 C51.8122589,11.3233224 51.5378296,11.1601868 51.1801679,11.1601868 Z M69.755557,11.1601868 C69.3864806,11.1601868 69.1072952,11.3233224 68.9122935,11.6510204 C68.747731,11.9240228 68.6668767,12.2560014 68.6668767,12.6455292 C68.6668767,13.0269716 68.747731,13.3513404 68.9122935,13.6233916 C69.1120513,13.9510896 69.3888587,14.1161276 69.7474716,14.1161276 C70.0989503,14.1161276 70.3752821,13.9487115 70.5726619,13.6157817 C70.7443585,13.3361207 70.8304446,13.0079471 70.8304446,12.6284071 C70.8304446,12.2493428 70.7467366,11.9240228 70.5826498,11.6510204 C70.3895505,11.3233224 70.1146456,11.1601868 69.755557,11.1601868 Z M79.0235136,11.200614 C78.680596,11.200614 78.4133009,11.3375908 78.2159211,11.6110688 C78.0180657,11.8840713 77.9200892,12.2331719 77.9200892,12.6588464 C77.9200892,13.0678744 78.0128339,13.3993774 78.2007015,13.6557333 C78.4018862,13.9277845 78.6687056,14.0647613 79.0054403,14.0647613 C79.3074552,14.0647613 79.5519208,13.9510896 79.7312272,13.7242217 C79.9095825,13.5125735 79.9985223,13.2600225 79.9985223,12.9651418 L79.9985223,12.2750259 C79.9985223,12.1551712 79.9904368,12.0586216 79.974266,11.9849014 C79.9219484,11.7637409 79.8101792,11.5777759 79.6380069,11.4265306 C79.4682127,11.2762366 79.2632231,11.200614 79.0235136,11.200614 Z M45.265052,9.65035022 C44.9754031,9.65035022 44.7285595,9.67032601 44.5235698,9.71027759 L44.5235698,13.9965107 C44.6372416,14.0145841 44.8450849,14.0217183 45.1461485,14.0217183 C45.8500572,14.0217183 46.3941596,13.8262409 46.7775045,13.4352862 C47.1608493,13.0448072 47.3529974,12.4726435 47.3529974,11.7259296 C47.3529974,11.0562651 47.176069,10.5435533 46.8207853,10.1873184 C46.4659773,9.82965669 45.9475581,9.65035022 45.265052,9.65035022 Z M28.4735007,7.40026807 C28.6537584,9.00974576 28.013582,10.5973452 27.0813786,11.7630751 C26.1077968,12.9107316 24.5534903,13.788715 23.0353305,13.6759945 C22.8355726,12.127871 23.6060673,10.4798686 24.4664529,9.47442062 C25.4376567,8.33294708 27.1246594,7.45971982 28.4735007,7.40026807 Z M106.227444,11.1165254 C105.926856,11.1165254 105.681915,11.2411363 105.494998,11.4908336 C105.342326,11.6905915 105.25196,11.9293497 105.221045,12.2075839 L107.139196,12.2075839 C107.146806,11.9336302 107.0845,11.6986769 106.960365,11.4998703 C106.799132,11.2449412 106.55752,11.1165254 106.227444,11.1165254 Z" id="Combined-Shape" fill="#B3B3B3"></path>
                    </g>
                </g>
            </g>
        </g>
    </g>
</svg>